<svg width="20" height="21" viewBox="0 0 20 21" fill="none" xmlns="http://www.w3.org/2000/svg">
<path d="M8.53917 6.50808C9.2275 7.19724 9.5725 7.54141 10 7.54141C10.4283 7.54141 10.7725 7.19724 11.4608 6.50808L12.9225 5.04724C13.2617 4.70724 13.4317 4.53724 13.6083 4.43558C14.4967 3.92224 15.2292 4.43141 15.8442 5.04724C16.46 5.66224 16.9692 6.39474 16.4558 7.28308C16.3542 7.45974 16.1842 7.62974 15.8442 7.96891L14.3833 9.43058C13.6942 10.1189 13.35 10.4639 13.35 10.8914C13.35 11.3197 13.6942 11.6639 14.3833 12.3522L15.8442 13.8139C16.1842 14.1531 16.3542 14.3231 16.4558 14.4997C16.9692 15.3881 16.46 16.1206 15.8442 16.7356C15.2292 17.3514 14.4967 17.8606 13.6083 17.3472C13.4317 17.2456 13.2617 17.0756 12.9225 16.7356L11.4608 15.2747C10.7725 14.5864 10.4275 14.2414 10 14.2414C9.57167 14.2414 9.2275 14.5864 8.53917 15.2747L7.0775 16.7356C6.73833 17.0756 6.56833 17.2456 6.39167 17.3472C5.50333 17.8606 4.77083 17.3514 4.15583 16.7356C3.54 16.1206 3.03083 15.3881 3.54417 14.4997C3.64583 14.3231 3.81583 14.1531 4.15583 13.8139L5.61667 12.3522C6.30583 11.6639 6.65 11.3189 6.65 10.8914C6.65 10.4631 6.305 10.1189 5.61667 9.43058L4.15583 7.96891C3.81583 7.62974 3.64583 7.45974 3.54417 7.28308C3.03083 6.39474 3.54 5.66224 4.15583 5.04724C4.77083 4.43141 5.50333 3.92224 6.39167 4.43558C6.56833 4.53724 6.73833 4.70724 7.0775 5.04724L8.53917 6.50808Z" stroke="url(#paint0_linear_998_658)" stroke-width="1.5" stroke-linecap="round" stroke-linejoin="round"/>
<defs>
<linearGradient id="paint0_linear_998_658" x1="10" y1="4.22461" x2="10" y2="17.5582" gradientUnits="userSpaceOnUse">
<stop stop-color="#F83E67"/>
<stop offset="1" stop-color="#A50976"/>
</linearGradient>
</defs>
</svg>
