<svg width="20" height="20" viewBox="0 0 20 20" fill="none" xmlns="http://www.w3.org/2000/svg">
<path fill-rule="evenodd" clip-rule="evenodd" d="M10 8.5C10.5304 8.5 11.0391 8.28929 11.4142 7.91421C11.7893 7.53914 12 7.03043 12 6.5C12 5.96957 11.7893 5.46086 11.4142 5.08579C11.0391 4.71071 10.5304 4.5 10 4.5C9.46957 4.5 8.96086 4.71071 8.58579 5.08579C8.21071 5.46086 8 5.96957 8 6.5C8 7.03043 8.21071 7.53914 8.58579 7.91421C8.96086 8.28929 9.46957 8.5 10 8.5ZM10 5.5C10.2652 5.5 10.5196 5.60536 10.7071 5.79289C10.8946 5.98043 11 6.23478 11 6.5C11 6.76522 10.8946 7.01957 10.7071 7.20711C10.5196 7.39464 10.2652 7.5 10 7.5C9.73478 7.5 9.48043 7.39464 9.29289 7.20711C9.10536 7.01957 9 6.76522 9 6.5C9 6.23478 9.10536 5.98043 9.29289 5.79289C9.48043 5.60536 9.73478 5.5 10 5.5Z" fill="#F83E67"/>
<path fill-rule="evenodd" clip-rule="evenodd" d="M5.5 6.286C5.5 8.959 8.153 13.5 10 13.5C11.848 13.5 14.5 8.959 14.5 6.286C14.5 3.65 12.493 1.5 10 1.5C7.507 1.5 5.5 3.65 5.5 6.286ZM13.5 6.286C13.5 8.479 11.152 12.5 10 12.5C8.849 12.5 6.5 8.48 6.5 6.286C6.5 4.187 8.075 2.5 10 2.5C11.925 2.5 13.5 4.187 13.5 6.286Z" fill="#F83E67"/>
<path d="M13.435 9.1397C13.3154 9.08825 13.2206 8.9922 13.1708 8.87197C13.1209 8.75174 13.1199 8.6168 13.1679 8.49584C13.216 8.37487 13.3093 8.2774 13.4281 8.22416C13.5469 8.17091 13.6817 8.16608 13.804 8.2107C14.2106 8.37198 14.5771 8.62025 14.8777 8.9381C15.1782 9.25594 15.4057 9.63568 15.544 10.0507L16.878 14.0507C17.0284 14.5018 17.0695 14.9823 16.9977 15.4524C16.9259 15.9225 16.7434 16.3688 16.4653 16.7545C16.1871 17.1402 15.8212 17.4543 15.3978 17.6708C14.9744 17.8873 14.5056 18 14.03 17.9997H5.97C5.49461 17.9997 5.02602 17.8867 4.60286 17.6701C4.1797 17.4535 3.81408 17.1394 3.53613 16.7537C3.25819 16.368 3.07587 15.9218 3.00422 15.4519C2.93256 14.9819 2.97362 14.5017 3.124 14.0507L4.457 10.0507C4.59775 9.62824 4.83078 9.24242 5.13918 8.92122C5.44758 8.60002 5.82361 8.3515 6.24 8.1937C6.30139 8.17039 6.36677 8.1594 6.43241 8.16136C6.49805 8.16331 6.56266 8.17818 6.62256 8.20511C6.68245 8.23204 6.73645 8.2705 6.78148 8.3183C6.82651 8.3661 6.86169 8.4223 6.885 8.4837C6.90831 8.54509 6.91929 8.61047 6.91734 8.67611C6.91538 8.74175 6.90051 8.80636 6.87358 8.86626C6.84665 8.92615 6.80819 8.98015 6.76039 9.02518C6.71259 9.07021 6.65639 9.10539 6.595 9.12869C6.31705 9.23384 6.06604 9.3996 5.86019 9.61392C5.65434 9.82824 5.49884 10.0857 5.405 10.3677L4.072 14.3677C3.97185 14.6684 3.94459 14.9885 3.99246 15.3018C4.04033 15.6151 4.16195 15.9125 4.34731 16.1695C4.53267 16.4265 4.77646 16.6359 5.05858 16.7802C5.34071 16.9245 5.65309 16.9998 5.97 16.9997H14.032C14.3489 16.9997 14.6613 16.9243 14.9434 16.7799C15.2255 16.6354 15.4692 16.426 15.6545 16.1688C15.8398 15.9117 15.9613 15.6142 16.009 15.3008C16.0567 14.9875 16.0293 14.6673 15.929 14.3667L14.597 10.3667C14.5047 10.0901 14.353 9.83712 14.1527 9.62534C13.9523 9.41356 13.708 9.24815 13.437 9.14069" fill="#F83E67"/>
</svg>
