<svg width="16" height="18" viewBox="0 0 16 18" fill="none" xmlns="http://www.w3.org/2000/svg">
<path d="M8.00001 4.00033C8.33153 4.00033 8.64947 3.86863 8.88389 3.63421C9.11831 3.39979 9.25001 3.08185 9.25001 2.75033C9.25001 2.06033 8.00001 0.666992 8.00001 0.666992C8.00001 0.666992 6.75001 2.06033 6.75001 2.75033C6.75001 3.08185 6.8817 3.39979 7.11612 3.63421C7.35054 3.86863 7.66848 4.00033 8.00001 4.00033ZM8.00001 4.00033V6.50033M2.16667 10.667L2.60001 12.817C3.03751 14.9812 3.25667 16.0628 3.99667 16.6987C4.73751 17.3337 5.78001 17.3337 7.86584 17.3337H8.13417C10.22 17.3337 11.2625 17.3337 12.0033 16.6987C12.7442 16.0628 12.9617 14.9812 13.3992 12.817L13.8333 10.667M12.7225 10.667C14.0258 10.667 15.0833 9.73366 15.0833 8.58366C15.0833 7.43366 14.0267 6.50033 12.7225 6.50033H3.27751C1.97501 6.50033 0.916672 7.43366 0.916672 8.58366C0.916672 9.73366 1.97417 10.667 3.27751 10.667C4.42001 10.667 5.42001 9.95116 5.63917 9.00033C5.85751 9.95116 6.85751 10.667 8.00001 10.667C9.14167 10.667 10.1417 9.95116 10.3608 9.00033C10.58 9.95116 11.58 10.667 12.7225 10.667Z" stroke="#F83E67" stroke-linecap="round" stroke-linejoin="round"/>
</svg>
