<svg width="16" height="16" viewBox="0 0 16 16" fill="none" xmlns="http://www.w3.org/2000/svg">
<path d="M14.875 0.65625H11.125C11.0007 0.65625 10.8815 0.705636 10.7935 0.793544C10.7056 0.881451 10.6562 1.00068 10.6562 1.125C10.6562 1.24932 10.7056 1.36855 10.7935 1.45646C10.8815 1.54436 11.0007 1.59375 11.125 1.59375H13.7437L10.0875 5.24922C9.18727 4.47832 8.08178 3.98667 6.9064 3.83448C5.73102 3.68229 4.53677 3.87615 3.46988 4.39234C2.403 4.90853 1.5098 5.72463 0.89966 6.7407C0.28952 7.75678 -0.0110769 8.92873 0.0346806 10.113C0.0804381 11.2974 0.470563 12.4426 1.15728 13.4086C1.844 14.3746 2.79751 15.1193 3.90104 15.5516C5.00457 15.984 6.21022 16.0851 7.37036 15.8427C8.53049 15.6003 9.59475 15.0248 10.4328 14.1867C11.5165 13.1002 12.151 11.6452 12.2099 10.1118C12.2688 8.57835 11.7479 7.07901 10.7508 5.9125L14.4062 2.25703V4.875C14.4062 4.99932 14.4556 5.11855 14.5435 5.20646C14.6315 5.29436 14.7507 5.34375 14.875 5.34375C14.9993 5.34375 15.1185 5.29436 15.2065 5.20646C15.2944 5.11855 15.3438 4.99932 15.3438 4.875V1.125C15.3438 1.00068 15.2944 0.881451 15.2065 0.793544C15.1185 0.705636 14.9993 0.65625 14.875 0.65625ZM9.77031 13.5234C9.0491 14.2443 8.13034 14.7352 7.13019 14.9339C6.13004 15.1327 5.09342 15.0304 4.15138 14.6401C3.20934 14.2497 2.40418 13.5889 1.83771 12.741C1.27125 11.8931 0.968898 10.8963 0.968898 9.87656C0.968898 8.85686 1.27125 7.86004 1.83771 7.01216C2.40418 6.16427 3.20934 5.50338 4.15138 5.11304C5.09342 4.7227 6.13004 4.62045 7.13019 4.81921C8.13034 5.01797 9.0491 5.50881 9.77031 6.22969C10.7359 7.19775 11.2782 8.50925 11.2782 9.87656C11.2782 11.2439 10.7359 12.5554 9.77031 13.5234Z" fill="#F83E67"/>
</svg>
