<svg width="16" height="16" viewBox="0 0 16 16" fill="none" xmlns="http://www.w3.org/2000/svg">
<g id="solar:home-add-linear" clip-path="url(#clip0_131_2959)">
<g id="Group">
<path id="Vector" d="M1.33334 8.13601C1.33334 6.61001 1.33334 5.84734 1.68001 5.21534C2.02534 4.58268 2.65801 4.19068 3.92268 3.40534L5.25601 2.57801C6.59268 1.74801 7.26134 1.33334 8.00001 1.33334C8.73868 1.33334 9.40668 1.74801 10.744 2.57801L12.0773 3.40534C13.342 4.19068 13.9747 4.58268 14.3207 5.21534C14.6667 5.84734 14.6667 6.61001 14.6667 8.13534V9.15001C14.6667 11.75 14.6667 13.0507 13.8853 13.8587C13.1047 14.6667 11.8473 14.6667 9.33334 14.6667H6.66668C4.15268 14.6667 2.89534 14.6667 2.11468 13.8587C1.33334 13.0507 1.33334 11.7507 1.33334 9.15001V8.13601Z" stroke="#F83E67" stroke-width="1.5"/>
<path id="Vector_2" d="M10 9.33334H8M8 9.33334H6M8 9.33334V7.33334M8 9.33334V11.3333" stroke="#F83E67" stroke-width="1.5" stroke-linecap="round"/>
</g>
</g>
<defs>
<clipPath id="clip0_131_2959">
<rect width="16" height="16" fill="white"/>
</clipPath>
</defs>
</svg>
