<svg width="20" height="20" viewBox="0 0 20 20" fill="none" xmlns="http://www.w3.org/2000/svg">
<path d="M9.99984 4.99935C10.3314 4.99935 10.6493 4.86765 10.8837 4.63323C11.1181 4.39881 11.2498 4.08087 11.2498 3.74935C11.2498 3.05935 9.99984 1.66602 9.99984 1.66602C9.99984 1.66602 8.74984 3.05935 8.74984 3.74935C8.74984 4.08087 8.88153 4.39881 9.11595 4.63323C9.35037 4.86765 9.66832 4.99935 9.99984 4.99935ZM9.99984 4.99935V7.49935M4.1665 11.666L4.59984 13.816C5.03734 15.9802 5.2565 17.0618 5.9965 17.6977C6.73734 18.3327 7.77984 18.3327 9.86567 18.3327H10.134C12.2198 18.3327 13.2623 18.3327 14.0032 17.6977C14.744 17.0618 14.9615 15.9802 15.399 13.816L15.8332 11.666M14.7223 11.666C16.0257 11.666 17.0832 10.7327 17.0832 9.58268C17.0832 8.43268 16.0265 7.49935 14.7223 7.49935H5.27734C3.97484 7.49935 2.9165 8.43268 2.9165 9.58268C2.9165 10.7327 3.974 11.666 5.27734 11.666C6.41984 11.666 7.41984 10.9502 7.639 9.99935C7.85734 10.9502 8.85734 11.666 9.99984 11.666C11.1415 11.666 12.1415 10.9502 12.3607 9.99935C12.5798 10.9502 13.5798 11.666 14.7223 11.666Z" stroke="#F83E67" stroke-linecap="round" stroke-linejoin="round"/>
</svg>
