<svg width="298" height="124" viewBox="0 0 298 124" fill="none" xmlns="http://www.w3.org/2000/svg">
<path d="M265.446 57.4318L260.66 94.1895C260.302 96.9419 258.022 99.0418 255.25 99.1739L128.769 105.2C125.204 105.37 122.353 102.275 122.814 98.7361L127.599 61.9784C127.958 59.226 130.237 57.1261 133.009 56.994L259.49 50.9676C263.055 50.7978 265.906 53.8927 265.446 57.4318Z" fill="url(#paint0_linear_1171_1941)"/>
<path d="M6.80553 25.9654C6.80553 23.6043 7.33276 21.4954 8.38722 19.6386C9.4646 17.7589 10.9202 16.3033 12.7541 15.2718C14.6108 14.2173 16.6854 13.6901 18.9777 13.6901C21.6597 13.6901 24.0093 14.3778 26.0265 15.7532C28.0438 17.1285 29.4535 19.0312 30.2558 21.461H24.7199C24.1698 20.3148 23.3904 19.4552 22.3818 18.8822C21.3961 18.3091 20.2499 18.0225 18.9433 18.0225C17.545 18.0225 16.2957 18.3549 15.1954 19.0197C14.118 19.6615 13.2698 20.5785 12.6509 21.7705C12.0549 22.9625 11.7569 24.3608 11.7569 25.9654C11.7569 27.5471 12.0549 28.9454 12.6509 30.1603C13.2698 31.3523 14.118 32.2807 15.1954 32.9455C16.2957 33.5873 17.545 33.9082 18.9433 33.9082C20.2499 33.9082 21.3961 33.6217 22.3818 33.0486C23.3904 32.4526 24.1698 31.5815 24.7199 30.4354H30.2558C29.4535 32.8882 28.0438 34.8022 26.0265 36.1776C24.0322 37.5301 21.6826 38.2063 18.9777 38.2063C16.6854 38.2063 14.6108 37.6905 12.7541 36.659C10.9202 35.6045 9.4646 34.1489 8.38722 32.2922C7.33276 30.4354 6.80553 28.3265 6.80553 25.9654ZM42.8261 38.3095C40.9923 38.3095 39.3418 37.9083 37.8747 37.106C36.4076 36.2808 35.25 35.1232 34.4019 33.6332C33.5766 32.1432 33.164 30.4239 33.164 28.4755C33.164 26.527 33.5881 24.8078 34.4363 23.3178C35.3073 21.8278 36.4879 20.6816 37.9779 19.8793C39.4679 19.0541 41.1298 18.6415 42.9636 18.6415C44.7975 18.6415 46.4594 19.0541 47.9494 19.8793C49.4394 20.6816 50.6085 21.8278 51.4566 23.3178C52.3277 24.8078 52.7633 26.527 52.7633 28.4755C52.7633 30.4239 52.3163 32.1432 51.4222 33.6332C50.5512 35.1232 49.3592 36.2808 47.8463 37.106C46.3563 37.9083 44.6829 38.3095 42.8261 38.3095ZM42.8261 34.1145C43.6972 34.1145 44.5109 33.9082 45.2674 33.4956C46.0468 33.0601 46.6657 32.4182 47.1242 31.5701C47.5826 30.7219 47.8119 29.6904 47.8119 28.4755C47.8119 26.6645 47.3305 25.2777 46.3677 24.3149C45.4279 23.3292 44.2703 22.8364 42.8949 22.8364C41.5195 22.8364 40.3619 23.3292 39.422 24.3149C38.5051 25.2777 38.0466 26.6645 38.0466 28.4755C38.0466 30.2864 38.4936 31.6847 39.3876 32.6704C40.3046 33.6332 41.4507 34.1145 42.8261 34.1145ZM66.8505 18.6758C69.1199 18.6758 70.9537 19.3979 72.352 20.8421C73.7503 22.2633 74.4495 24.2576 74.4495 26.825V38H69.6356V27.4783C69.6356 25.9654 69.2574 24.8078 68.5009 24.0055C67.7445 23.1802 66.7129 22.7676 65.4063 22.7676C64.0768 22.7676 63.0223 23.1802 62.2429 24.0055C61.4865 24.8078 61.1082 25.9654 61.1082 27.4783V38H56.2944V18.9509H61.1082V21.3235C61.7501 20.4982 62.5639 19.8564 63.5495 19.3979C64.5582 18.9165 65.6585 18.6758 66.8505 18.6758ZM86.4886 18.6415C87.9099 18.6415 89.1592 18.928 90.2366 19.5011C91.314 20.0512 92.1621 20.7733 92.781 21.6673V18.9509H97.6293V38.1375C97.6293 39.9026 97.274 41.4728 96.5633 42.8482C95.8527 44.2465 94.7868 45.3468 93.3656 46.1492C91.9443 46.9744 90.2251 47.387 88.2079 47.387C85.503 47.387 83.2794 46.7566 81.5373 45.4958C79.818 44.2351 78.8438 42.5158 78.6146 40.3382H83.394C83.6462 41.2092 84.1849 41.8969 85.0101 42.4012C85.8583 42.9285 86.8783 43.1921 88.0703 43.1921C89.4686 43.1921 90.6033 42.768 91.4744 41.9198C92.3455 41.0946 92.781 39.8338 92.781 38.1375V35.1805C92.1621 36.0745 91.3025 36.8195 90.2022 37.4155C89.1248 38.0115 87.887 38.3095 86.4886 38.3095C84.884 38.3095 83.417 37.8968 82.0874 37.0716C80.7579 36.2464 79.7034 35.0888 78.924 33.5988C78.1676 32.0858 77.7893 30.3552 77.7893 28.4067C77.7893 26.4812 78.1676 24.7734 78.924 23.2834C79.7034 21.7934 80.7464 20.6472 82.053 19.8449C83.3826 19.0426 84.8611 18.6415 86.4886 18.6415ZM92.781 28.4755C92.781 27.3064 92.5518 26.3092 92.0933 25.484C91.6349 24.6358 91.016 23.994 90.2366 23.5585C89.4572 23.1 88.6205 22.8708 87.7265 22.8708C86.8325 22.8708 86.0073 23.0885 85.2508 23.5241C84.4943 23.9596 83.8754 24.6015 83.394 25.4496C82.9356 26.2748 82.7063 27.2605 82.7063 28.4067C82.7063 29.5528 82.9356 30.5615 83.394 31.4325C83.8754 32.2807 84.4943 32.934 85.2508 33.3925C86.0302 33.8509 86.8554 34.0802 87.7265 34.0802C88.6205 34.0802 89.4572 33.8624 90.2366 33.4268C91.016 32.9684 91.6349 32.3265 92.0933 31.5013C92.5518 30.6532 92.781 29.6445 92.781 28.4755ZM107.145 21.908C107.764 20.8994 108.566 20.1085 109.552 19.5355C110.56 18.9624 111.706 18.6758 112.99 18.6758V23.7304H111.718C110.205 23.7304 109.059 24.0857 108.279 24.7963C107.523 25.5069 107.145 26.7448 107.145 28.5098V38H102.331V18.9509H107.145V21.908ZM114.995 28.4067C114.995 26.4812 115.373 24.7734 116.129 23.2834C116.909 21.7934 117.952 20.6472 119.258 19.8449C120.588 19.0426 122.066 18.6415 123.694 18.6415C125.115 18.6415 126.353 18.928 127.407 19.5011C128.485 20.0742 129.344 20.7962 129.986 21.6673V18.9509H134.834V38H129.986V35.2148C129.367 36.1088 128.508 36.8538 127.407 37.4498C126.33 38.0229 125.081 38.3095 123.659 38.3095C122.055 38.3095 120.588 37.8968 119.258 37.0716C117.952 36.2464 116.909 35.0888 116.129 33.5988C115.373 32.0858 114.995 30.3552 114.995 28.4067ZM129.986 28.4755C129.986 27.3064 129.757 26.3092 129.299 25.484C128.84 24.6358 128.221 23.994 127.442 23.5585C126.662 23.1 125.826 22.8708 124.932 22.8708C124.038 22.8708 123.212 23.0885 122.456 23.5241C121.7 23.9596 121.081 24.6015 120.599 25.4496C120.141 26.2748 119.912 27.2605 119.912 28.4067C119.912 29.5528 120.141 30.5615 120.599 31.4325C121.081 32.2807 121.7 32.934 122.456 33.3925C123.235 33.8509 124.061 34.0802 124.932 34.0802C125.826 34.0802 126.662 33.8624 127.442 33.4268C128.221 32.9684 128.84 32.3265 129.299 31.5013C129.757 30.6532 129.986 29.6445 129.986 28.4755ZM145.141 22.9052V32.1202C145.141 32.7621 145.29 33.232 145.588 33.53C145.909 33.8051 146.436 33.9426 147.169 33.9426H149.404V38H146.379C142.321 38 140.293 36.0286 140.293 32.0858V22.9052H138.023V18.9509H140.293V14.2402H145.141V18.9509H149.404V22.9052H145.141ZM170.85 18.9509V38H166.002V35.5931C165.383 36.4183 164.569 37.0716 163.56 37.553C162.575 38.0115 161.497 38.2407 160.328 38.2407C158.838 38.2407 157.52 37.9312 156.374 37.3123C155.228 36.6705 154.322 35.7421 153.658 34.5272C153.016 33.2893 152.695 31.8222 152.695 30.1259V18.9509H157.509V29.4382C157.509 30.9512 157.887 32.1202 158.643 32.9455C159.4 33.7478 160.431 34.1489 161.738 34.1489C163.068 34.1489 164.111 33.7478 164.867 32.9455C165.623 32.1202 166.002 30.9512 166.002 29.4382V18.9509H170.85ZM180.413 12.5554V38H175.6V12.5554H180.413ZM183.932 28.4067C183.932 26.4812 184.31 24.7734 185.066 23.2834C185.846 21.7934 186.889 20.6472 188.195 19.8449C189.525 19.0426 191.003 18.6415 192.631 18.6415C194.052 18.6415 195.29 18.928 196.345 19.5011C197.422 20.0742 198.282 20.7962 198.923 21.6673V18.9509H203.772V38H198.923V35.2148C198.304 36.1088 197.445 36.8538 196.345 37.4498C195.267 38.0229 194.018 38.3095 192.597 38.3095C190.992 38.3095 189.525 37.8968 188.195 37.0716C186.889 36.2464 185.846 35.0888 185.066 33.5988C184.31 32.0858 183.932 30.3552 183.932 28.4067ZM198.923 28.4755C198.923 27.3064 198.694 26.3092 198.236 25.484C197.777 24.6358 197.158 23.994 196.379 23.5585C195.6 23.1 194.763 22.8708 193.869 22.8708C192.975 22.8708 192.15 23.0885 191.393 23.5241C190.637 23.9596 190.018 24.6015 189.536 25.4496C189.078 26.2748 188.849 27.2605 188.849 28.4067C188.849 29.5528 189.078 30.5615 189.536 31.4325C190.018 32.2807 190.637 32.934 191.393 33.3925C192.173 33.8509 192.998 34.0802 193.869 34.0802C194.763 34.0802 195.6 33.8624 196.379 33.4268C197.158 32.9684 197.777 32.3265 198.236 31.5013C198.694 30.6532 198.923 29.6445 198.923 28.4755ZM214.078 22.9052V32.1202C214.078 32.7621 214.227 33.232 214.525 33.53C214.846 33.8051 215.373 33.9426 216.107 33.9426H218.342V38H215.316C211.258 38 209.23 36.0286 209.23 32.0858V22.9052H206.96V18.9509H209.23V14.2402H214.078V18.9509H218.342V22.9052H214.078ZM224.245 16.6815C223.397 16.6815 222.686 16.4179 222.113 15.8907C221.563 15.3405 221.288 14.6643 221.288 13.862C221.288 13.0597 221.563 12.3949 222.113 11.8677C222.686 11.3175 223.397 11.0425 224.245 11.0425C225.093 11.0425 225.793 11.3175 226.343 11.8677C226.916 12.3949 227.202 13.0597 227.202 13.862C227.202 14.6643 226.916 15.3405 226.343 15.8907C225.793 16.4179 225.093 16.6815 224.245 16.6815ZM226.618 18.9509V38H221.804V18.9509H226.618ZM239.832 38.3095C237.999 38.3095 236.348 37.9083 234.881 37.106C233.414 36.2808 232.256 35.1232 231.408 33.6332C230.583 32.1432 230.17 30.4239 230.17 28.4755C230.17 26.527 230.594 24.8078 231.443 23.3178C232.314 21.8278 233.494 20.6816 234.984 19.8793C236.474 19.0541 238.136 18.6415 239.97 18.6415C241.804 18.6415 243.466 19.0541 244.956 19.8793C246.446 20.6816 247.615 21.8278 248.463 23.3178C249.334 24.8078 249.77 26.527 249.77 28.4755C249.77 30.4239 249.323 32.1432 248.429 33.6332C247.558 35.1232 246.366 36.2808 244.853 37.106C243.363 37.9083 241.689 38.3095 239.832 38.3095ZM239.832 34.1145C240.704 34.1145 241.517 33.9082 242.274 33.4956C243.053 33.0601 243.672 32.4182 244.131 31.5701C244.589 30.7219 244.818 29.6904 244.818 28.4755C244.818 26.6645 244.337 25.2777 243.374 24.3149C242.434 23.3292 241.277 22.8364 239.901 22.8364C238.526 22.8364 237.368 23.3292 236.428 24.3149C235.511 25.2777 235.053 26.6645 235.053 28.4755C235.053 30.2864 235.5 31.6847 236.394 32.6704C237.311 33.6332 238.457 34.1145 239.832 34.1145ZM263.857 18.6758C266.126 18.6758 267.96 19.3979 269.358 20.8421C270.757 22.2633 271.456 24.2576 271.456 26.825V38H266.642V27.4783C266.642 25.9654 266.264 24.8078 265.507 24.0055C264.751 23.1802 263.719 22.7676 262.413 22.7676C261.083 22.7676 260.029 23.1802 259.249 24.0055C258.493 24.8078 258.115 25.9654 258.115 27.4783V38H253.301V18.9509H258.115V21.3235C258.756 20.4982 259.57 19.8564 260.556 19.3979C261.565 18.9165 262.665 18.6758 263.857 18.6758ZM283.323 38.3095C281.764 38.3095 280.366 38.0344 279.128 37.4842C277.89 36.9112 276.905 36.1432 276.171 35.1805C275.46 34.2177 275.071 33.1518 275.002 31.9827H279.85C279.942 32.7162 280.297 33.3237 280.916 33.8051C281.558 34.2865 282.349 34.5272 283.289 34.5272C284.206 34.5272 284.916 34.3438 285.421 33.977C285.948 33.6102 286.211 33.1403 286.211 32.5672C286.211 31.9483 285.89 31.4898 285.249 31.1918C284.63 30.8709 283.633 30.5271 282.257 30.1603C280.836 29.8165 279.667 29.4612 278.75 29.0944C277.856 28.7276 277.077 28.166 276.412 27.4095C275.77 26.6531 275.449 25.633 275.449 24.3493C275.449 23.2948 275.747 22.3321 276.343 21.461C276.962 20.5899 277.833 19.9022 278.956 19.3979C280.102 18.8936 281.443 18.6415 282.979 18.6415C285.249 18.6415 287.06 19.2145 288.412 20.3607C289.764 21.4839 290.509 23.0083 290.647 24.9338H286.039C285.971 24.1774 285.65 23.5814 285.077 23.1458C284.527 22.6874 283.782 22.4582 282.842 22.4582C281.971 22.4582 281.294 22.6186 280.813 22.9395C280.355 23.2605 280.125 23.7075 280.125 24.2805C280.125 24.9224 280.446 25.4152 281.088 25.7591C281.73 26.08 282.727 26.4124 284.08 26.7562C285.455 27.1001 286.59 27.4554 287.484 27.8222C288.378 28.1889 289.146 28.762 289.787 29.5414C290.452 30.2978 290.796 31.3065 290.819 32.5672C290.819 33.6675 290.509 34.6532 289.891 35.5243C289.295 36.3954 288.423 37.0831 287.277 37.5874C286.154 38.0688 284.836 38.3095 283.323 38.3095ZM44.2968 68.6815C43.4487 68.6815 42.7381 68.4179 42.165 67.8907C41.6148 67.3405 41.3398 66.6643 41.3398 65.862C41.3398 65.0597 41.6148 64.3949 42.165 63.8677C42.7381 63.3175 43.4487 63.0425 44.2968 63.0425C45.145 63.0425 45.8441 63.3175 46.3943 63.8677C46.9674 64.3949 47.2539 65.0597 47.2539 65.862C47.2539 66.6643 46.9674 67.3405 46.3943 67.8907C45.8441 68.4179 45.145 68.6815 44.2968 68.6815ZM46.6694 70.9509V90H41.8555V70.9509H46.6694ZM57.0302 74.9052V84.1202C57.0302 84.7621 57.1792 85.232 57.4772 85.53C57.7981 85.8051 58.3253 85.9426 59.0589 85.9426H61.2939V90H58.268C54.2106 90 52.1819 88.0286 52.1819 84.0858V74.9052H49.9125V70.9509H52.1819V66.2402H57.0302V70.9509H61.2939V74.9052H57.0302ZM65.719 65.9995H70.7735L67.06 74.6645H63.7591L65.719 65.9995ZM81.515 90.3095C79.9562 90.3095 78.5579 90.0344 77.32 89.4842C76.0822 88.9112 75.0965 88.1432 74.363 87.1805C73.6523 86.2177 73.2627 85.1518 73.1939 83.9827H78.0421C78.1338 84.7162 78.4891 85.3237 79.108 85.8051C79.7499 86.2865 80.5407 86.5272 81.4806 86.5272C82.3975 86.5272 83.1081 86.3438 83.6124 85.977C84.1397 85.6102 84.4033 85.1403 84.4033 84.5672C84.4033 83.9483 84.0823 83.4898 83.4405 83.1918C82.8216 82.8709 81.8244 82.5271 80.449 82.1603C79.0278 81.8165 77.8587 81.4612 76.9418 81.0944C76.0478 80.7276 75.2684 80.166 74.6037 79.4095C73.9618 78.6531 73.6409 77.633 73.6409 76.3493C73.6409 75.2948 73.9389 74.3321 74.5349 73.461C75.1538 72.5899 76.0249 71.9022 77.1481 71.3979C78.2943 70.8936 79.6353 70.6415 81.1711 70.6415C83.4405 70.6415 85.2514 71.2145 86.6039 72.3607C87.9563 73.4839 88.7013 75.0083 88.8389 76.9338H84.2313C84.1626 76.1774 83.8417 75.5814 83.2686 75.1458C82.7184 74.6874 81.9734 74.4582 81.0336 74.4582C80.1625 74.4582 79.4863 74.6186 79.0049 74.9395C78.5464 75.2605 78.3172 75.7075 78.3172 76.2805C78.3172 76.9224 78.6381 77.4152 79.28 77.7591C79.9218 78.08 80.919 78.4124 82.2714 78.7562C83.6468 79.1001 84.7815 79.4554 85.6755 79.8222C86.5695 80.1889 87.3374 80.762 87.9793 81.5414C88.644 82.2978 88.9879 83.3065 89.0108 84.5672C89.0108 85.6675 88.7013 86.6532 88.0824 87.5243C87.4864 88.3954 86.6153 89.0831 85.4692 89.5874C84.346 90.0688 83.0279 90.3095 81.515 90.3095ZM99.9177 80.4067C99.9177 78.4812 100.296 76.7734 101.052 75.2834C101.832 73.7934 102.875 72.6472 104.181 71.8449C105.511 71.0426 106.989 70.6415 108.617 70.6415C110.038 70.6415 111.276 70.928 112.331 71.5011C113.408 72.0742 114.268 72.7962 114.909 73.6673V70.9509H119.758V90H114.909V87.2148C114.29 88.1088 113.431 88.8538 112.331 89.4498C111.253 90.0229 110.004 90.3095 108.583 90.3095C106.978 90.3095 105.511 89.8968 104.181 89.0716C102.875 88.2464 101.832 87.0888 101.052 85.5988C100.296 84.0858 99.9177 82.3552 99.9177 80.4067ZM114.909 80.4755C114.909 79.3064 114.68 78.3092 114.222 77.484C113.763 76.6358 113.144 75.994 112.365 75.5585C111.586 75.1 110.749 74.8708 109.855 74.8708C108.961 74.8708 108.136 75.0885 107.379 75.5241C106.623 75.9596 106.004 76.6015 105.522 77.4496C105.064 78.2748 104.835 79.2605 104.835 80.4067C104.835 81.5528 105.064 82.5615 105.522 83.4325C106.004 84.2807 106.623 84.934 107.379 85.3925C108.159 85.8509 108.984 86.0802 109.855 86.0802C110.749 86.0802 111.586 85.8624 112.365 85.4268C113.144 84.9684 113.763 84.3265 114.222 83.5013C114.68 82.6532 114.909 81.6445 114.909 80.4755Z" fill="#383838"/>
<path d="M156.309 70.6758C158.647 70.6758 160.527 71.3979 161.948 72.8421C163.392 74.2633 164.114 76.2576 164.114 78.825V90H159.3V79.4783C159.3 77.9883 158.922 76.8536 158.166 76.0742C157.409 75.2719 156.378 74.8708 155.071 74.8708C153.765 74.8708 152.722 75.2719 151.942 76.0742C151.186 76.8536 150.807 77.9883 150.807 79.4783V90H145.994V79.4783C145.994 77.9883 145.615 76.8536 144.859 76.0742C144.102 75.2719 143.071 74.8708 141.764 74.8708C140.435 74.8708 139.38 75.2719 138.601 76.0742C137.844 76.8536 137.466 77.9883 137.466 79.4783V90H132.652V70.9509H137.466V73.2547C138.085 72.4524 138.876 71.822 139.839 71.3635C140.824 70.9051 141.902 70.6758 143.071 70.6758C144.561 70.6758 145.89 70.9968 147.06 71.6386C148.229 72.2575 149.134 73.1515 149.776 74.3206C150.395 73.2203 151.289 72.3378 152.458 71.673C153.65 71.0082 154.934 70.6758 156.309 70.6758ZM167.445 80.4067C167.445 78.4812 167.823 76.7734 168.579 75.2834C169.359 73.7934 170.402 72.6472 171.708 71.8449C173.038 71.0426 174.516 70.6415 176.144 70.6415C177.565 70.6415 178.803 70.928 179.857 71.5011C180.935 72.0742 181.794 72.7962 182.436 73.6673V70.9509H187.284V90H182.436V87.2148C181.817 88.1088 180.958 88.8538 179.857 89.4498C178.78 90.0229 177.531 90.3095 176.109 90.3095C174.505 90.3095 173.038 89.8968 171.708 89.0716C170.402 88.2464 169.359 87.0888 168.579 85.5988C167.823 84.0858 167.445 82.3552 167.445 80.4067ZM182.436 80.4755C182.436 79.3064 182.207 78.3092 181.749 77.484C181.29 76.6358 180.671 75.994 179.892 75.5585C179.112 75.1 178.276 74.8708 177.382 74.8708C176.488 74.8708 175.662 75.0885 174.906 75.5241C174.15 75.9596 173.531 76.6015 173.049 77.4496C172.591 78.2748 172.362 79.2605 172.362 80.4067C172.362 81.5528 172.591 82.5615 173.049 83.4325C173.531 84.2807 174.15 84.934 174.906 85.3925C175.685 85.8509 176.511 86.0802 177.382 86.0802C178.276 86.0802 179.112 85.8624 179.892 85.4268C180.671 84.9684 181.29 84.3265 181.749 83.5013C182.207 82.6532 182.436 81.6445 182.436 80.4755ZM197.591 74.9052V84.1202C197.591 84.7621 197.74 85.232 198.038 85.53C198.359 85.8051 198.886 85.9426 199.619 85.9426H201.854V90H198.829C194.771 90 192.742 88.0286 192.742 84.0858V74.9052H190.473V70.9509H192.742V66.2402H197.591V70.9509H201.854V74.9052H197.591ZM204.079 80.4755C204.079 78.5041 204.48 76.7848 205.282 75.3178C206.085 73.8278 207.196 72.6816 208.618 71.8793C210.039 71.0541 211.666 70.6415 213.5 70.6415C215.861 70.6415 217.81 71.2375 219.346 72.4295C220.904 73.5985 221.947 75.249 222.475 77.3808H217.283C217.008 76.5556 216.538 75.9138 215.873 75.4553C215.231 74.9739 214.429 74.7332 213.466 74.7332C212.091 74.7332 211.002 75.2375 210.199 76.2462C209.397 77.2318 208.996 78.6416 208.996 80.4755C208.996 82.2864 209.397 83.6962 210.199 84.7048C211.002 85.6905 212.091 86.1833 213.466 86.1833C215.414 86.1833 216.687 85.3122 217.283 83.5701H222.475C221.947 85.6332 220.904 87.2722 219.346 88.4871C217.787 89.702 215.838 90.3095 213.5 90.3095C211.666 90.3095 210.039 89.9083 208.618 89.106C207.196 88.2808 206.085 87.1346 205.282 85.6675C204.48 84.1775 204.079 82.4468 204.079 80.4755ZM236.729 70.6758C238.173 70.6758 239.457 70.9968 240.58 71.6386C241.704 72.2575 242.575 73.1859 243.194 74.4238C243.835 75.6387 244.156 77.1058 244.156 78.825V90H239.342V79.4783C239.342 77.9654 238.964 76.8078 238.208 76.0055C237.451 75.1802 236.42 74.7676 235.113 74.7676C233.784 74.7676 232.729 75.1802 231.95 76.0055C231.193 76.8078 230.815 77.9654 230.815 79.4783V90H226.001V64.5554H230.815V73.3235C231.434 72.4982 232.259 71.8564 233.291 71.3979C234.322 70.9165 235.468 70.6758 236.729 70.6758ZM254.958 65.5869L254.408 82.1947H250.35L249.766 65.5869H254.958ZM252.482 90.2407C251.611 90.2407 250.889 89.9771 250.316 89.4498C249.766 88.8997 249.491 88.2235 249.491 87.4212C249.491 86.6188 249.766 85.9541 250.316 85.4268C250.889 84.8767 251.611 84.6016 252.482 84.6016C253.33 84.6016 254.029 84.8767 254.579 85.4268C255.13 85.9541 255.405 86.6188 255.405 87.4212C255.405 88.2235 255.13 88.8997 254.579 89.4498C254.029 89.9771 253.33 90.2407 252.482 90.2407Z" fill="white"/>
<defs>
<linearGradient id="paint0_linear_1171_1941" x1="198.846" y1="41.856" x2="189.413" y2="114.312" gradientUnits="userSpaceOnUse">
<stop stop-color="#F83E67"/>
<stop offset="1" stop-color="#A50976"/>
</linearGradient>
</defs>
</svg>
