<svg width="16" height="16" viewBox="0 0 16 16" fill="none" xmlns="http://www.w3.org/2000/svg">
<g id="solar:menu-dots-bold">
<path id="Vector" d="M8 11.3333C8.35362 11.3333 8.69276 11.4738 8.94281 11.7239C9.19285 11.9739 9.33333 12.313 9.33333 12.6667C9.33333 13.0203 9.19285 13.3594 8.94281 13.6095C8.69276 13.8595 8.35362 14 8 14C7.64638 14 7.30724 13.8595 7.05719 13.6095C6.80714 13.3594 6.66666 13.0203 6.66666 12.6667C6.66666 12.313 6.80714 11.9739 7.05719 11.7239C7.30724 11.4738 7.64638 11.3333 8 11.3333ZM8 6.66667C8.35362 6.66667 8.69276 6.80714 8.94281 7.05719C9.19285 7.30724 9.33333 7.64638 9.33333 8C9.33333 8.35362 9.19285 8.69276 8.94281 8.94281C8.69276 9.19286 8.35362 9.33333 8 9.33333C7.64638 9.33333 7.30724 9.19286 7.05719 8.94281C6.80714 8.69276 6.66666 8.35362 6.66666 8C6.66666 7.64638 6.80714 7.30724 7.05719 7.05719C7.30724 6.80714 7.64638 6.66667 8 6.66667ZM8 2C8.35362 2 8.69276 2.14048 8.94281 2.39052C9.19285 2.64057 9.33333 2.97971 9.33333 3.33333C9.33333 3.68696 9.19285 4.02609 8.94281 4.27614C8.69276 4.52619 8.35362 4.66667 8 4.66667C7.64638 4.66667 7.30724 4.52619 7.05719 4.27614C6.80714 4.02609 6.66666 3.68696 6.66666 3.33333C6.66666 2.97971 6.80714 2.64057 7.05719 2.39052C7.30724 2.14048 7.64638 2 8 2Z" fill="#F83E67"/>
</g>
</svg>
