<svg width="20" height="22" viewBox="0 0 20 22" fill="none" xmlns="http://www.w3.org/2000/svg">
<path d="M3.05838 8.99333C3.26838 9.4425 3.77588 10.3175 3.77588 10.3175L9.66755 0.5L3.92171 4.54833C3.57754 4.78167 3.29754 5.09083 3.10505 5.4525C2.84311 6.00479 2.70384 6.60723 2.69679 7.21844C2.68974 7.82966 2.81508 8.43515 3.06421 8.99333H3.05838ZM0.730878 12.225C0.795009 13.162 1.05689 14.0748 1.49929 14.9033C1.94168 15.7318 2.55455 16.4572 3.29754 17.0317L9.66171 21.5C9.66171 21.5 5.68921 15.725 2.33504 9.9675C1.99425 9.35982 1.76508 8.696 1.65838 8.0075C1.61145 7.6962 1.61145 7.37963 1.65838 7.06833L1.40171 7.56417C1.06338 8.26417 0.830045 9.01083 0.719212 9.78083C0.649212 10.5975 0.660878 11.4142 0.736712 12.2308L0.730878 12.225ZM16.9417 13.0067C16.7169 12.5577 16.4776 12.1161 16.2242 11.6825L10.3384 21.5L16.0842 17.4575C16.4225 17.2242 16.7025 16.915 16.9009 16.5475C17.1619 15.9948 17.3002 15.3921 17.3062 14.7809C17.3123 14.1697 17.1859 13.5644 16.9359 13.0067H16.9417ZM19.2692 9.775C19.2051 8.83799 18.9432 7.92519 18.5008 7.09671C18.0584 6.26822 17.4455 5.54284 16.7025 4.96833L10.3384 0.5C10.3384 0.5 14.3109 6.275 17.665 12.0325C18.0038 12.6406 18.231 13.3044 18.3359 13.9925C18.3825 14.3017 18.3825 14.6225 18.3359 14.9317L18.5925 14.4358C18.9367 13.7358 19.1642 12.9892 19.2809 12.2192C19.3509 11.4025 19.3392 10.5858 19.2634 9.76917L19.2692 9.775Z" fill="black"/>
</svg>
