<svg width="20" height="20" viewBox="0 0 20 20" fill="none" xmlns="http://www.w3.org/2000/svg">
<path d="M16.8751 2.65625H13.1251C13.0008 2.65625 12.8816 2.70564 12.7937 2.79354C12.7058 2.88145 12.6564 3.00068 12.6564 3.125C12.6564 3.24932 12.7058 3.36855 12.7937 3.45646C12.8816 3.54436 13.0008 3.59375 13.1251 3.59375H15.7439L12.0876 7.24922C11.1874 6.47832 10.0819 5.98667 8.90654 5.83448C7.73116 5.68229 6.5369 5.87615 5.47002 6.39234C4.40314 6.90853 3.50994 7.72463 2.8998 8.7407C2.28966 9.75678 1.98906 10.9287 2.03482 12.113C2.08058 13.2974 2.4707 14.4426 3.15742 15.4086C3.84414 16.3746 4.79765 17.1193 5.90118 17.5516C7.0047 17.984 8.21036 18.0851 9.37049 17.8427C10.5306 17.6003 11.5949 17.0248 12.4329 16.1867C13.5166 15.1002 14.1511 13.6452 14.21 12.1118C14.269 10.5784 13.748 9.07901 12.7509 7.9125L16.4064 4.25703V6.875C16.4064 6.99932 16.4558 7.11855 16.5437 7.20646C16.6316 7.29436 16.7508 7.34375 16.8751 7.34375C16.9995 7.34375 17.1187 7.29436 17.2066 7.20646C17.2945 7.11855 17.3439 6.99932 17.3439 6.875V3.125C17.3439 3.00068 17.2945 2.88145 17.2066 2.79354C17.1187 2.70564 16.9995 2.65625 16.8751 2.65625ZM11.7704 15.5234C11.0492 16.2443 10.1305 16.7352 9.13033 16.9339C8.13018 17.1327 7.09356 17.0304 6.15152 16.6401C5.20947 16.2497 4.40432 15.5889 3.83785 14.741C3.27138 13.8931 2.96904 12.8963 2.96904 11.8766C2.96904 10.8569 3.27138 9.86004 3.83785 9.01216C4.40432 8.16427 5.20947 7.50338 6.15152 7.11304C7.09356 6.7227 8.13018 6.62045 9.13033 6.81921C10.1305 7.01797 11.0492 7.50881 11.7704 8.22969C12.736 9.19775 13.2783 10.5093 13.2783 11.8766C13.2783 13.2439 12.736 14.5554 11.7704 15.5234Z" fill="#F83E67"/>
</svg>
