<svg width="20" height="20" viewBox="0 0 20 20" fill="none" xmlns="http://www.w3.org/2000/svg">
<path fill-rule="evenodd" clip-rule="evenodd" d="M10 8.5C10.5304 8.5 11.0391 8.28929 11.4142 7.91421C11.7893 7.53914 12 7.03043 12 6.5C12 5.96957 11.7893 5.46086 11.4142 5.08579C11.0391 4.71071 10.5304 4.5 10 4.5C9.46957 4.5 8.96086 4.71071 8.58579 5.08579C8.21071 5.46086 8 5.96957 8 6.5C8 7.03043 8.21071 7.53914 8.58579 7.91421C8.96086 8.28929 9.46957 8.5 10 8.5ZM10 5.5C10.2652 5.5 10.5196 5.60536 10.7071 5.79289C10.8946 5.98043 11 6.23478 11 6.5C11 6.76522 10.8946 7.01957 10.7071 7.20711C10.5196 7.39464 10.2652 7.5 10 7.5C9.73478 7.5 9.48043 7.39464 9.29289 7.20711C9.10536 7.01957 9 6.76522 9 6.5C9 6.23478 9.10536 5.98043 9.29289 5.79289C9.48043 5.60536 9.73478 5.5 10 5.5Z" fill="#F83E67"/>
<path fill-rule="evenodd" clip-rule="evenodd" d="M5.5 6.286C5.5 8.959 8.153 13.5 10 13.5C11.848 13.5 14.5 8.959 14.5 6.286C14.5 3.65 12.493 1.5 10 1.5C7.507 1.5 5.5 3.65 5.5 6.286ZM13.5 6.286C13.5 8.479 11.152 12.5 10 12.5C8.849 12.5 6.5 8.48 6.5 6.286C6.5 4.187 8.075 2.5 10 2.5C11.925 2.5 13.5 4.187 13.5 6.286Z" fill="#F83E67"/>
<path d="M13.4348 9.14067C13.3152 9.08922 13.2204 8.99318 13.1706 8.87295C13.1207 8.75272 13.1197 8.61778 13.1677 8.49681C13.2158 8.37584 13.3091 8.27838 13.4279 8.22513C13.5466 8.17189 13.6815 8.16706 13.8038 8.21167C14.2104 8.37296 14.5769 8.62122 14.8775 8.93907C15.178 9.25692 15.4054 9.63666 15.5438 10.0517L16.8778 14.0517C17.0282 14.5028 17.0692 14.9832 16.9975 15.4534C16.9257 15.9235 16.7432 16.3698 16.4651 16.7555C16.1869 17.1412 15.821 17.4553 15.3976 17.6718C14.9742 17.8883 14.5053 18.001 14.0298 18.0007H5.96978C5.49439 18.0007 5.02581 17.8877 4.60265 17.6711C4.17949 17.4545 3.81387 17.1404 3.53592 16.7547C3.25797 16.369 3.07566 15.9228 3.004 15.4529C2.93235 14.9829 2.9734 14.5026 3.12378 14.0517L4.45678 10.0517C4.59754 9.62922 4.83057 9.24339 5.13897 8.92219C5.44736 8.601 5.8234 8.35248 6.23978 8.19467C6.30118 8.17136 6.36656 8.16037 6.4322 8.16233C6.49784 8.16429 6.56245 8.17916 6.62234 8.20609C6.68224 8.23302 6.73624 8.27148 6.78127 8.31928C6.8263 8.36708 6.86147 8.42328 6.88478 8.48467C6.90809 8.54606 6.91908 8.61145 6.91712 8.67709C6.91516 8.74273 6.9003 8.80734 6.87337 8.86723C6.84644 8.92713 6.80798 8.98113 6.76018 9.02616C6.71238 9.07119 6.65618 9.10636 6.59478 9.12967C6.31684 9.23481 6.06582 9.40057 5.85998 9.6149C5.65413 9.82922 5.49863 10.0867 5.40478 10.3687L4.07178 14.3687C3.97164 14.6693 3.94438 14.9895 3.99225 15.3028C4.04011 15.616 4.16174 15.9134 4.3471 16.1705C4.53246 16.4275 4.77624 16.6368 5.05837 16.7812C5.34049 16.9255 5.65288 17.0007 5.96978 17.0007H14.0318C14.3487 17.0006 14.6611 16.9253 14.9432 16.7808C15.2253 16.6364 15.469 16.4269 15.6543 16.1698C15.8396 15.9126 15.9611 15.6151 16.0088 15.3018C16.0565 14.9885 16.0291 14.6683 15.9288 14.3677L14.5968 10.3677C14.5045 10.0911 14.3528 9.83809 14.1524 9.62631C13.9521 9.41453 13.7078 9.24912 13.4368 9.14167" fill="#F83E67"/>
</svg>
