<svg width="24" height="24" viewBox="0 0 24 24" fill="none" xmlns="http://www.w3.org/2000/svg">
<g id="hugeicons:mail-02">
<g id="Group">
<path id="Vector" d="M7 8.5L9.942 10.24C11.657 11.254 12.342 11.254 14.058 10.24L17 8.5" stroke="#383838" stroke-width="1.5" stroke-linecap="round" stroke-linejoin="round"/>
<path id="Vector_2" d="M2.01606 13.476C2.08106 16.541 2.11406 18.074 3.24506 19.209C4.37606 20.345 5.95006 20.384 9.09906 20.463C11.0391 20.513 12.9611 20.513 14.9011 20.463C18.0501 20.384 19.6241 20.345 20.7551 19.209C21.8861 18.074 21.9191 16.541 21.9851 13.476C22.0051 12.49 22.0051 11.51 21.9851 10.524C21.9191 7.45896 21.8861 5.92596 20.7551 4.79096C19.6241 3.65496 18.0501 3.61596 14.9011 3.53696C12.9674 3.48817 11.0327 3.48817 9.09906 3.53696C5.95006 3.61596 4.37606 3.65496 3.24506 4.79096C2.11406 5.92596 2.08106 7.45896 2.01506 10.524C1.994 11.5078 1.995 12.4921 2.01606 13.476Z" stroke="#383838" stroke-width="1.5" stroke-linecap="round" stroke-linejoin="round"/>
</g>
</g>
</svg>
