<svg width="20" height="20" viewBox="0 0 20 20" fill="none" xmlns="http://www.w3.org/2000/svg">
<path d="M13 17H14.5C15.163 17 15.7989 16.7366 16.2678 16.2678C16.7366 15.7989 17 15.163 17 14.5V13H13V17ZM13 12V8H17V12H13ZM12 12H8.744C8.57332 11.5179 8.32171 11.0685 8 10.671V8H12V12ZM8.561 15.44L10.121 17H12V13H8.973C8.991 13.164 9 13.3307 9 13.5C9 14.195 8.843 14.853 8.561 15.44ZM4.5 9C5.425 9 6.285 9.28 7 9.758V8H3V9.256C3.47 9.09 3.974 9 4.5 9ZM13 7H17V5.5C17 4.83696 16.7366 4.20107 16.2678 3.73223C15.7989 3.26339 15.163 3 14.5 3H13V7ZM12 3V7H8V3H12ZM7 3V7H3V5.5C3 4.83696 3.26339 4.20107 3.73223 3.73223C4.20107 3.26339 4.83696 3 5.5 3H7Z" fill="white"/>
<path d="M4.50001 17C5.28601 17 6.01201 16.74 6.59601 16.303L9.14601 18.853C9.19243 18.8995 9.24755 18.9364 9.30823 18.9616C9.36891 18.9867 9.43395 18.9997 9.49965 18.9998C9.56535 18.9998 9.63041 18.9869 9.69113 18.9618C9.75184 18.9367 9.80702 18.8999 9.85351 18.8535C9.89999 18.8071 9.93688 18.752 9.96207 18.6913C9.98725 18.6306 10.0002 18.5656 10.0003 18.4999C10.0003 18.4342 9.98744 18.3691 9.96234 18.3084C9.93724 18.2477 9.90043 18.1925 9.85401 18.146L7.30401 15.596C7.77602 14.9648 8.02115 14.1927 7.99972 13.4048C7.97828 12.6169 7.69153 11.8593 7.1859 11.2547C6.68027 10.6501 5.98535 10.2338 5.21368 10.0733C4.44201 9.91284 3.63875 10.0175 2.93398 10.3704C2.2292 10.7233 1.66417 11.3037 1.33038 12.0178C0.996578 12.7318 0.913556 13.5375 1.09475 14.3046C1.27595 15.0717 1.71076 15.7552 2.32877 16.2443C2.94678 16.7335 3.71182 16.9998 4.50001 17ZM4.50001 16C3.83696 16 3.20108 15.7366 2.73224 15.2678C2.2634 14.7989 2.00001 14.163 2.00001 13.5C2.00001 12.837 2.2634 12.2011 2.73224 11.7322C3.20108 11.2634 3.83696 11 4.50001 11C5.16305 11 5.79893 11.2634 6.26777 11.7322C6.73661 12.2011 7.00001 12.837 7.00001 13.5C7.00001 14.163 6.73661 14.7989 6.26777 15.2678C5.79893 15.7366 5.16305 16 4.50001 16Z" fill="white"/>
</svg>
