<svg width="20" height="20" viewBox="0 0 20 20" fill="none" xmlns="http://www.w3.org/2000/svg">
<path d="M13 17H14.5C15.163 17 15.7989 16.7366 16.2678 16.2678C16.7366 15.7989 17 15.163 17 14.5V13H13V17ZM13 12V8H17V12H13ZM12 12H8.744C8.57332 11.5179 8.32171 11.0685 8 10.671V8H12V12ZM8.561 15.44L10.121 17H12V13H8.973C8.991 13.164 9 13.3307 9 13.5C9 14.195 8.843 14.853 8.561 15.44ZM4.5 9C5.425 9 6.285 9.28 7 9.758V8H3V9.256C3.47 9.09 3.974 9 4.5 9ZM13 7H17V5.5C17 4.83696 16.7366 4.20107 16.2678 3.73223C15.7989 3.26339 15.163 3 14.5 3H13V7ZM12 3V7H8V3H12ZM7 3V7H3V5.5C3 4.83696 3.26339 4.20107 3.73223 3.73223C4.20107 3.26339 4.83696 3 5.5 3H7Z" fill="white" fill-opacity="0.4"/>
<path d="M4.49998 17C5.28598 17 6.01198 16.74 6.59598 16.303L9.14598 18.853C9.1924 18.8995 9.24752 18.9364 9.3082 18.9616C9.36888 18.9867 9.43392 18.9997 9.49962 18.9998C9.56532 18.9998 9.63038 18.9869 9.6911 18.9618C9.75181 18.9367 9.80699 18.8999 9.85348 18.8535C9.89996 18.8071 9.93685 18.752 9.96204 18.6913C9.98722 18.6306 10.0002 18.5656 10.0003 18.4999C10.0003 18.4342 9.98741 18.3691 9.96231 18.3084C9.93721 18.2477 9.9004 18.1925 9.85398 18.146L7.30398 15.596C7.77599 14.9648 8.02112 14.1927 7.99968 13.4048C7.97825 12.6169 7.6915 11.8593 7.18587 11.2547C6.68024 10.6501 5.98532 10.2338 5.21365 10.0733C4.44198 9.91284 3.63872 10.0175 2.93395 10.3704C2.22917 10.7233 1.66414 11.3037 1.33034 12.0178C0.996547 12.7318 0.913525 13.5375 1.09472 14.3046C1.27592 15.0717 1.71073 15.7552 2.32874 16.2443C2.94675 16.7335 3.71179 16.9998 4.49998 17ZM4.49998 16C3.83693 16 3.20105 15.7366 2.73221 15.2678C2.26337 14.7989 1.99998 14.163 1.99998 13.5C1.99998 12.837 2.26337 12.2011 2.73221 11.7322C3.20105 11.2634 3.83693 11 4.49998 11C5.16302 11 5.7989 11.2634 6.26774 11.7322C6.73658 12.2011 6.99998 12.837 6.99998 13.5C6.99998 14.163 6.73658 14.7989 6.26774 15.2678C5.7989 15.7366 5.16302 16 4.49998 16Z" fill="white" fill-opacity="0.4"/>
</svg>
