<svg xmlns="http://www.w3.org/2000/svg" xmlns:xlink="http://www.w3.org/1999/xlink" viewBox="0 0 374.65 309.81"><defs><style>.cls-1{fill:url(#linear-gradient);}.cls-2{fill:url(#linear-gradient-2);}.cls-3{fill:url(#linear-gradient-3);}.cls-4{fill:url(#linear-gradient-4);}.cls-5{fill:url(#linear-gradient-5);}.cls-6{fill:none;}.cls-7{clip-path:url(#clip-path);}.cls-8{fill:url(#linear-gradient-6);}.cls-9{clip-path:url(#clip-path-2);}.cls-10{mask:url(#mask);}.cls-11{fill:url(#linear-gradient-7);}.cls-12{clip-path:url(#clip-path-3);}.cls-13{mask:url(#mask-2);}.cls-14{fill:url(#linear-gradient-8);}.cls-15{clip-path:url(#clip-path-4);}.cls-16{fill:url(#linear-gradient-9);}.cls-17{clip-path:url(#clip-path-5);}.cls-18{mask:url(#mask-3);}.cls-19{fill:url(#linear-gradient-10);}.cls-20{clip-path:url(#clip-path-6);}.cls-21{mask:url(#mask-4);}.cls-22{fill:url(#linear-gradient-11);}.cls-23{clip-path:url(#clip-path-7);}.cls-24{fill:url(#linear-gradient-12);}.cls-25{clip-path:url(#clip-path-8);}.cls-26{mask:url(#mask-5);}.cls-27{fill:url(#linear-gradient-13);}.cls-28{clip-path:url(#clip-path-9);}.cls-29{fill:url(#linear-gradient-14);}.cls-30{clip-path:url(#clip-path-10);}.cls-31{fill:url(#linear-gradient-15);}</style><linearGradient id="linear-gradient" x1="2897.14" y1="1510.53" x2="2897.75" y2="1510.53" gradientTransform="matrix(-68.19, 0, 0, 68.19, 197845.16, -102982.32)" gradientUnits="userSpaceOnUse"><stop offset="0" stop-color="gray"/><stop offset="0.63" stop-color="#fff"/><stop offset="0.85" stop-color="#fff"/><stop offset="1" stop-color="#fff"/></linearGradient><linearGradient id="linear-gradient-2" x1="2843.1" y1="1525.54" x2="2843.7" y2="1525.54" gradientTransform="matrix(0, -252.97, -252.97, 0, 386097.01, 719443.29)" xlink:href="#linear-gradient"/><linearGradient id="linear-gradient-3" x1="2824.89" y1="1522.21" x2="2825.5" y2="1522.21" gradientTransform="matrix(177.08, 0, 0, -177.08, -500037.52, 269759.94)" xlink:href="#linear-gradient"/><linearGradient id="linear-gradient-4" x1="2830.04" y1="1511.44" x2="2830.64" y2="1511.44" gradientTransform="matrix(296.08, 0, 0, -296.08, -837741.51, 447650.13)" xlink:href="#linear-gradient"/><linearGradient id="linear-gradient-5" x1="2817.13" y1="1512.41" x2="2817.74" y2="1512.41" gradientTransform="matrix(144.92, 0, 0, -144.92, -408071.38, 219443.34)" xlink:href="#linear-gradient"/><clipPath id="clip-path" transform="translate(10.29)"><path class="cls-6" d="M86.93.63a20.72,20.72,0,0,0-3,39.17,21.48,21.48,0,0,0,2.25.81A20.74,20.74,0,0,0,111.77,27c.15-.53.3-1.05.43-1.59a21,21,0,0,0,.52-4.65A20.72,20.72,0,0,0,86.93.63"/></clipPath><linearGradient id="linear-gradient-6" x1="2895.48" y1="1510.53" x2="2896.09" y2="1510.53" gradientTransform="matrix(-68.19, 0, 0, 68.19, 197565.76, -102982.23)" gradientUnits="userSpaceOnUse"><stop offset="0" stop-color="#c0e6eb"/><stop offset="0.24" stop-color="#b8d0eb"/><stop offset="0.47" stop-color="#b098c8"/><stop offset="0.69" stop-color="#9866ab"/><stop offset="1" stop-color="#b098c8"/></linearGradient><clipPath id="clip-path-2" transform="translate(10.29)"><path class="cls-6" d="M249.48,11.3a20.59,20.59,0,0,0-2.26,9.42c0,.57,0,1.13.07,1.69a19.67,19.67,0,0,0,.32,2.34,20.74,20.74,0,0,0,16.72,16.37,20.45,20.45,0,0,0,3.61.32c.38,0,.77,0,1.14,0a20.73,20.73,0,0,0,19.57-20c0-.23,0-.47,0-.71A20.71,20.71,0,0,0,269.21,0c-.42,0-.84,0-1.27,0a20.72,20.72,0,0,0-18.46,11.3"/></clipPath><mask id="mask" x="257.51" y="0" width="41.44" height="41.44" maskUnits="userSpaceOnUse"><g transform="translate(10.29)"><rect class="cls-1" x="247.22" width="41.44" height="41.44"/></g></mask><linearGradient id="linear-gradient-7" x1="2897.14" y1="1510.53" x2="2897.75" y2="1510.53" gradientTransform="matrix(-68.19, 0, 0, 68.19, 197855.45, -102982.32)" gradientUnits="userSpaceOnUse"><stop offset="0" stop-color="#fff"/><stop offset="0.63" stop-color="#ee4d9b"/><stop offset="0.85" stop-color="#ee4d9b"/><stop offset="1" stop-color="#ee4d9b"/></linearGradient><clipPath id="clip-path-3" transform="translate(10.29)"><path class="cls-6" d="M177.16,154.21c-7.63,8.84-13.4,16.37-16.86,21a148.74,148.74,0,0,1-28.73,26.43c-12.34,8.65-27.27,18.85-48.72,21.5-20,2.47-37.1-3.49-48.27-9,7.51,6.07,34.14,26.07,66.7,21.37,15.54-2.24,28.08-9.48,34.19-13a130.62,130.62,0,0,0,33.81-28.61c3.53-4.22,4.79-6.22,14.83-18.83,3-3.85,7.53-9.41,13.06-16,20.21-24.11,30.23-36.31,42-43.75,12.2-7.73,26.44-14.83,42.72-13.8,6,.38,18.52,1,28.07,9.9,11.79,11,14.71,30.37,8.36,49.33-6.84,17.49-15.55,26.2-22.48,30.93-4.53,3.09-17.65,10.87-17.65,10.87a35.93,35.93,0,0,0,19.78,1.67c13.18-2.8,20.51-13,26.2-20.9a70.89,70.89,0,0,0,12.54-32.89A59.63,59.63,0,0,0,335.24,127a60.46,60.46,0,0,0-9.78-19.89,62.26,62.26,0,0,0-11.25-11.62S301,84.28,282.34,82.67c-1.59-.13-3.18-.2-4.75-.2-38.48,0-73,40-100.43,71.74"/></clipPath><mask id="mask-2" x="44.87" y="82.47" width="303.49" height="157.72" maskUnits="userSpaceOnUse"><g transform="translate(10.29)"><rect class="cls-2" x="34.58" y="82.47" width="303.49" height="157.72"/></g></mask><linearGradient id="linear-gradient-8" x1="2843.1" y1="1525.54" x2="2843.7" y2="1525.54" gradientTransform="matrix(0, -252.97, -252.97, 0, 386107.25, 719443.2)" xlink:href="#linear-gradient-7"/><clipPath id="clip-path-4" transform="translate(10.29)"><path class="cls-6" d="M66.77,85.18C61.64,86.84,41.62,94,30.12,114.72c-8.32,15-7.84,29.64-7.62,34.88a58,58,0,0,0,5,22.9c.54,1.18,13.53,28.28,39.59,30.73a42.14,42.14,0,0,0,16.36-1.77c-18.15-8-29-18.31-34.58-24.51-7.89-8.77-10.54-15.22-11.62-18.13-2.05-5.57-3-12-2.69-20.69C35.32,119.18,53.16,109,53.16,109s16.72-13,45-5.2,68.19,61.31,68.19,61.31l11.52-14.19s-24.11-33.65-53.23-54.41A70.43,70.43,0,0,0,83.31,83a57.66,57.66,0,0,0-16.54,2.16"/></clipPath><linearGradient id="linear-gradient-9" x1="2856.72" y1="1510.6" x2="2857.33" y2="1510.6" gradientTransform="matrix(-255.75, 0, 0, 255.75, 730787.67, -386189.82)" xlink:href="#linear-gradient-6"/><clipPath id="clip-path-5" transform="translate(10.29)"><path class="cls-6" d="M179.69,183.09s24,24.9,31.21,29.73,36.6,28.61,66.51,22.85S322.93,216,322.93,216s-31.4,16.91-63.54,2.6-55-34.75-67.81-50.91Z"/></clipPath><mask id="mask-3" x="158.04" y="105.65" width="207.13" height="197.82" maskUnits="userSpaceOnUse"><g transform="translate(10.29)"><rect class="cls-3" x="170.84" y="136.8" width="160.94" height="135.5" transform="translate(-68.61 153.06) rotate(-30)"/></g></mask><linearGradient id="linear-gradient-10" x1="2824.89" y1="1522.21" x2="2825.5" y2="1522.21" gradientTransform="matrix(177.08, 0, 0, -177.08, -500037.52, 269759.94)" xlink:href="#linear-gradient-7"/><clipPath id="clip-path-6" transform="translate(10.29)"><path class="cls-6" d="M255.3,62C208.11,70.5,180,110.87,180,110.87l8.46,12.21c46.45-75.62,112.4-37.53,112.4-37.53,4.16,2,28.51,13.84,36.8,41.5,10.41,34.76-13.92,63-18.05,67.62-3.51,3.89-7.09,7.56-13,10.35-20.5,9.71-45-6.36-48.77-8.92a291.82,291.82,0,0,1-26.08-19.81,291.85,291.85,0,0,1-26.31-25.43l-9.76,11.8s27.3,34.75,68,52.58,62.8,2.41,80.83-20.81,19.88-60.38,7.43-83.24C340.78,90.75,310,60.64,269.87,60.64A81.79,81.79,0,0,0,255.3,62"/></clipPath><mask id="mask-4" x="190.25" y="47.46" width="184.4" height="185.6" maskUnits="userSpaceOnUse"><g transform="translate(10.29)"><rect class="cls-4" x="179.96" y="47.46" width="184.4" height="185.6"/></g></mask><linearGradient id="linear-gradient-11" x1="2830.04" y1="1511.44" x2="2830.64" y2="1511.44" gradientTransform="matrix(296.08, 0, 0, -296.08, -837731.3, 447650.18)" xlink:href="#linear-gradient-7"/><clipPath id="clip-path-7" transform="translate(10.29)"><path class="cls-6" d="M79.59,61.21C52.35,64.34,32.12,81,32.12,81c-26,21.26-30.7,51-30.7,51s-11.71,50,32.19,80.54S131,194.85,131,194.85s20.76-16.73,31.91-31.22l-9.76-13S125,185.51,98.82,197.08,59.24,210.73,35.14,188c-16-15.12-14.88-36.3-14.84-42.61C20.44,122.74,32,107.11,36,102.18,47.22,90.25,58.09,85.05,64.4,82.67a108.14,108.14,0,0,1,15-4.2,95.31,95.31,0,0,1,38.44,2.62c21.84,6.25,48,28.15,65.77,62.43,1.53-1.73,3.07-3.46,4.64-5.2s3.38-3.73,5.06-5.55C167.09,88.6,126.83,60.71,88.43,60.71a79,79,0,0,0-8.84.5"/></clipPath><linearGradient id="linear-gradient-12" x1="2853.95" y1="1510.73" x2="2854.56" y2="1510.73" gradientTransform="matrix(-318.06, 0, 0, 318.06, 907941.56, -480355.6)" gradientUnits="userSpaceOnUse"><stop offset="0" stop-color="#ee4d9b"/><stop offset="0.43" stop-color="#b8d0eb"/><stop offset="0.58" stop-color="#b098c8"/><stop offset="0.69" stop-color="#9866ab"/><stop offset="1" stop-color="#b098c8"/></linearGradient><clipPath id="clip-path-8" transform="translate(10.29)"><path class="cls-6" d="M203.28,252c-11.15,12.27-22.66,33.08-23.41,57.79,0,0,1.67-20.07,16-34s32.33-24.16,40.69-26.94,31.4-10.78,31.4-10.78-15.42.19-33.07-8.73c0,0-20.44,10.4-31.59,22.66"/></clipPath><mask id="mask-5" x="190.16" y="229.36" width="88.07" height="80.45" maskUnits="userSpaceOnUse"><g transform="translate(10.29)"><rect class="cls-5" x="179.87" y="229.36" width="88.07" height="80.45"/></g></mask><linearGradient id="linear-gradient-13" x1="2817.13" y1="1512.41" x2="2817.74" y2="1512.41" gradientTransform="matrix(144.92, 0, 0, -144.92, -408061.09, 219443.34)" xlink:href="#linear-gradient-7"/><clipPath id="clip-path-9" transform="translate(10.29)"><path class="cls-6" d="M92,238.09s23,8,31.4,10.78,26.38,13,40.69,26.94,16,34,16,34c-.75-24.71-12.27-45.52-23.41-57.79s-31.59-22.66-31.59-22.66C107.42,238.28,92,238.09,92,238.09"/></clipPath><linearGradient id="linear-gradient-14" x1="2867.68" y1="1509.7" x2="2868.29" y2="1509.7" gradientTransform="matrix(-144.92, 0, 0, 144.92, 415766.42, -218511.46)" xlink:href="#linear-gradient-6"/><clipPath id="clip-path-10" transform="translate(10.29)"><polygon class="cls-6" points="165.62 132.93 175.09 144.82 179.92 138.88 171 125.68 165.62 132.93"/></clipPath><linearGradient id="linear-gradient-15" x1="2997.98" y1="1506.4" x2="2998.59" y2="1506.4" gradientTransform="matrix(-23.54, 0, 0, 23.54, 70766.88, -35327.42)" gradientUnits="userSpaceOnUse"><stop offset="0" stop-color="#fff"/><stop offset="0.78" stop-color="#ee4d9b"/><stop offset="0.9" stop-color="#ee4d9b"/><stop offset="1" stop-color="#ee4d9b"/></linearGradient></defs><g id="Layer_2" data-name="Layer 2"><g id="Layer_1-2" data-name="Layer 1"><g class="cls-7"><rect class="cls-8" x="81.57" width="41.44" height="41.44"/></g><g class="cls-9"><g class="cls-10"><rect class="cls-11" x="257.51" width="41.44" height="41.44"/></g></g><g class="cls-12"><g class="cls-13"><rect class="cls-14" x="44.87" y="82.47" width="303.49" height="157.72"/></g></g><g class="cls-15"><rect class="cls-16" x="32.08" y="83.02" width="156.03" height="120.86"/></g><g class="cls-17"><g class="cls-18"><rect class="cls-19" x="170.84" y="136.8" width="160.94" height="135.5" transform="translate(-58.32 153.06) rotate(-30)"/></g></g><g class="cls-20"><g class="cls-21"><rect class="cls-22" x="190.25" y="47.46" width="184.4" height="185.6"/></g></g><g class="cls-23"><rect class="cls-24" y="60.71" width="203.58" height="182.35"/></g><g class="cls-25"><g class="cls-26"><rect class="cls-27" x="190.16" y="229.36" width="88.07" height="80.45"/></g></g><g class="cls-28"><rect class="cls-29" x="102.29" y="229.36" width="88.07" height="80.45"/></g><g class="cls-30"><rect class="cls-31" x="175.91" y="125.68" width="14.31" height="19.14"/></g></g></g></svg>