<svg xmlns="http://www.w3.org/2000/svg" xmlns:xlink="http://www.w3.org/1999/xlink" viewBox="0 0 1779.72 328.27"><defs><style>.cls-1{fill:url(#linear-gradient);}.cls-2{fill:url(#linear-gradient-2);}.cls-3{fill:url(#linear-gradient-3);}.cls-4{fill:url(#linear-gradient-4);}.cls-5{fill:url(#linear-gradient-5);}.cls-22,.cls-6{fill:#fff;}.cls-7{clip-path:url(#clip-path);}.cls-8{clip-path:url(#clip-path-2);}.cls-9{mask:url(#mask);}.cls-10{clip-path:url(#clip-path-3);}.cls-11{mask:url(#mask-2);}.cls-12{clip-path:url(#clip-path-4);}.cls-13{clip-path:url(#clip-path-5);}.cls-14{mask:url(#mask-3);}.cls-15{clip-path:url(#clip-path-6);}.cls-16{mask:url(#mask-4);}.cls-17{clip-path:url(#clip-path-7);}.cls-18{clip-path:url(#clip-path-8);}.cls-19{mask:url(#mask-5);}.cls-20{clip-path:url(#clip-path-9);}.cls-21{clip-path:url(#clip-path-10);}.cls-22{font-size:219.03px;font-family:Montserrat-SemiBold, Montserrat;font-weight:600;}.cls-23{letter-spacing:-0.02em;}.cls-24{letter-spacing:-0.07em;}</style><linearGradient id="linear-gradient" x1="5476.91" y1="1567.56" x2="5477.52" y2="1567.56" gradientTransform="matrix(-68.19, 0, 0, 68.19, 373759.75, -106871.43)" gradientUnits="userSpaceOnUse"><stop offset="0" stop-color="gray"/><stop offset="0.63" stop-color="#fff"/><stop offset="0.85" stop-color="#fff"/><stop offset="1" stop-color="#fff"/></linearGradient><linearGradient id="linear-gradient-2" x1="5385.81" y1="1593.48" x2="5386.42" y2="1593.48" gradientTransform="matrix(0, -252.97, -252.97, 0, 403281.72, 1362663.2)" xlink:href="#linear-gradient"/><linearGradient id="linear-gradient-3" x1="5355.11" y1="1587.55" x2="5355.71" y2="1587.55" gradientTransform="matrix(177.08, 0, 0, -177.08, -948092.58, 281331.16)" xlink:href="#linear-gradient"/><linearGradient id="linear-gradient-4" x1="5363.93" y1="1569.52" x2="5364.54" y2="1569.52" gradientTransform="matrix(296.08, 0, 0, -296.08, -1587981.37, 464845.86)" xlink:href="#linear-gradient"/><linearGradient id="linear-gradient-5" x1="5342.07" y1="1570.69" x2="5342.68" y2="1570.69" gradientTransform="matrix(144.92, 0, 0, -144.92, -773978.57, 227889.35)" xlink:href="#linear-gradient"/><clipPath id="clip-path" transform="translate(10.29)"><path class="cls-6" d="M86.93.63a20.72,20.72,0,0,0-3,39.17,21.48,21.48,0,0,0,2.25.81A20.74,20.74,0,0,0,111.77,27c.15-.53.3-1.05.43-1.59a21,21,0,0,0,.52-4.65A20.72,20.72,0,0,0,86.93.63"/></clipPath><clipPath id="clip-path-2" transform="translate(10.29)"><path class="cls-6" d="M249.48,11.3a20.59,20.59,0,0,0-2.26,9.42c0,.57,0,1.13.07,1.69a19.67,19.67,0,0,0,.32,2.34,20.74,20.74,0,0,0,16.72,16.37,20.45,20.45,0,0,0,3.61.32c.38,0,.77,0,1.14,0a20.73,20.73,0,0,0,19.57-20c0-.23,0-.47,0-.71A20.71,20.71,0,0,0,269.21,0c-.42,0-.84,0-1.27,0a20.72,20.72,0,0,0-18.46,11.3"/></clipPath><mask id="mask" x="257.51" y="0" width="41.44" height="41.44" maskUnits="userSpaceOnUse"><g transform="translate(10.29)"><rect class="cls-1" x="247.22" width="41.44" height="41.44"/></g></mask><clipPath id="clip-path-3" transform="translate(10.29)"><path class="cls-6" d="M177.16,154.21c-7.63,8.84-13.4,16.37-16.86,21a148.74,148.74,0,0,1-28.73,26.43c-12.34,8.65-27.27,18.85-48.72,21.5-20,2.47-37.1-3.49-48.27-9,7.51,6.07,34.14,26.07,66.7,21.37,15.54-2.24,28.08-9.48,34.19-13a130.62,130.62,0,0,0,33.81-28.61c3.53-4.22,4.79-6.22,14.83-18.83,3-3.85,7.53-9.41,13.06-16,20.21-24.11,30.23-36.31,42-43.75,12.2-7.73,26.44-14.83,42.72-13.8,6,.38,18.52,1,28.07,9.9,11.79,11,14.71,30.37,8.36,49.33-6.84,17.49-15.55,26.2-22.48,30.93-4.53,3.09-17.65,10.87-17.65,10.87a35.93,35.93,0,0,0,19.78,1.67c13.18-2.8,20.51-13,26.2-20.9a70.89,70.89,0,0,0,12.54-32.89A59.63,59.63,0,0,0,335.24,127a60.46,60.46,0,0,0-9.78-19.89,62.26,62.26,0,0,0-11.25-11.62S301,84.28,282.34,82.67c-1.59-.13-3.18-.2-4.75-.2-38.48,0-73,40-100.43,71.74"/></clipPath><mask id="mask-2" x="44.87" y="82.47" width="303.49" height="157.72" maskUnits="userSpaceOnUse"><g transform="translate(10.29)"><rect class="cls-2" x="34.58" y="82.47" width="303.49" height="157.72"/></g></mask><clipPath id="clip-path-4" transform="translate(10.29)"><path class="cls-6" d="M66.77,85.18C61.64,86.84,41.62,94,30.12,114.72c-8.32,15-7.84,29.64-7.62,34.88a58,58,0,0,0,5,22.9c.54,1.18,13.53,28.28,39.59,30.73a42.14,42.14,0,0,0,16.36-1.77c-18.15-8-29-18.31-34.58-24.51-7.89-8.77-10.54-15.22-11.62-18.13-2.05-5.57-3-12-2.69-20.69C35.32,119.18,53.16,109,53.16,109s16.72-13,45-5.2,68.19,61.31,68.19,61.31l11.52-14.19s-24.11-33.65-53.23-54.41A70.43,70.43,0,0,0,83.31,83a57.66,57.66,0,0,0-16.54,2.16"/></clipPath><clipPath id="clip-path-5" transform="translate(10.29)"><path class="cls-6" d="M179.69,183.09s24,24.9,31.21,29.73,36.6,28.61,66.51,22.85S322.93,216,322.93,216s-31.4,16.91-63.54,2.6-55-34.75-67.81-50.91Z"/></clipPath><mask id="mask-3" x="158.04" y="105.65" width="207.13" height="197.82" maskUnits="userSpaceOnUse"><g transform="translate(10.29)"><rect class="cls-3" x="170.84" y="136.8" width="160.94" height="135.5" transform="translate(-68.61 153.06) rotate(-30)"/></g></mask><clipPath id="clip-path-6" transform="translate(10.29)"><path class="cls-6" d="M255.3,62C208.11,70.5,180,110.87,180,110.87l8.46,12.21c46.45-75.62,112.4-37.53,112.4-37.53,4.16,2,28.51,13.84,36.8,41.5,10.41,34.76-13.92,63-18.05,67.62-3.51,3.89-7.09,7.56-13,10.35-20.5,9.71-45-6.36-48.77-8.92a291.82,291.82,0,0,1-26.08-19.81,291.85,291.85,0,0,1-26.31-25.43l-9.76,11.8s27.3,34.75,68,52.58,62.8,2.41,80.83-20.81,19.88-60.38,7.43-83.24C340.78,90.75,310,60.64,269.87,60.64A81.79,81.79,0,0,0,255.3,62"/></clipPath><mask id="mask-4" x="190.25" y="47.46" width="184.4" height="185.6" maskUnits="userSpaceOnUse"><g transform="translate(10.29)"><rect class="cls-4" x="179.96" y="47.46" width="184.4" height="185.6"/></g></mask><clipPath id="clip-path-7" transform="translate(10.29)"><path class="cls-6" d="M79.59,61.21C52.35,64.34,32.12,81,32.12,81c-26,21.26-30.7,51-30.7,51s-11.71,50,32.19,80.54S131,194.85,131,194.85s20.76-16.73,31.91-31.22l-9.76-13S125,185.51,98.82,197.08,59.24,210.73,35.14,188c-16-15.12-14.88-36.3-14.84-42.61C20.44,122.74,32,107.11,36,102.18,47.22,90.25,58.09,85.05,64.4,82.67a108.14,108.14,0,0,1,15-4.2,95.31,95.31,0,0,1,38.44,2.62c21.84,6.25,48,28.15,65.77,62.43,1.53-1.73,3.07-3.46,4.64-5.2s3.38-3.73,5.06-5.55C167.09,88.6,126.83,60.71,88.43,60.71a79,79,0,0,0-8.84.5"/></clipPath><clipPath id="clip-path-8" transform="translate(10.29)"><path class="cls-6" d="M203.28,252c-11.15,12.27-22.66,33.08-23.41,57.79,0,0,1.67-20.07,16-34s32.33-24.16,40.69-26.94,31.4-10.78,31.4-10.78-15.42.19-33.07-8.73c0,0-20.44,10.4-31.59,22.66"/></clipPath><mask id="mask-5" x="190.16" y="229.36" width="88.07" height="80.45" maskUnits="userSpaceOnUse"><g transform="translate(10.29)"><rect class="cls-5" x="179.87" y="229.36" width="88.07" height="80.45"/></g></mask><clipPath id="clip-path-9" transform="translate(10.29)"><path class="cls-6" d="M92,238.09s23,8,31.4,10.78,26.38,13,40.69,26.94,16,34,16,34c-.75-24.71-12.27-45.52-23.41-57.79s-31.59-22.66-31.59-22.66C107.42,238.28,92,238.09,92,238.09"/></clipPath><clipPath id="clip-path-10" transform="translate(10.29)"><polygon class="cls-6" points="165.62 132.93 175.09 144.82 179.92 138.88 171 125.68 165.62 132.93"/></clipPath></defs><g id="Layer_2" data-name="Layer 2"><g id="Layer_1-2" data-name="Layer 1"><path class="cls-6" d="M86.93.63a20.72,20.72,0,0,0-3,39.17,21.48,21.48,0,0,0,2.25.81A20.74,20.74,0,0,0,111.77,27c.15-.53.3-1.05.43-1.59a21,21,0,0,0,.52-4.65A20.72,20.72,0,0,0,86.93.63" transform="translate(10.29)"/><g class="cls-7"><rect class="cls-6" x="81.57" width="41.44" height="41.44"/></g><path class="cls-6" d="M249.48,11.3a20.59,20.59,0,0,0-2.26,9.42c0,.57,0,1.13.07,1.69a19.67,19.67,0,0,0,.32,2.34,20.74,20.74,0,0,0,16.72,16.37,20.45,20.45,0,0,0,3.61.32c.38,0,.77,0,1.14,0a20.73,20.73,0,0,0,19.57-20c0-.23,0-.47,0-.71A20.71,20.71,0,0,0,269.21,0c-.42,0-.84,0-1.27,0a20.72,20.72,0,0,0-18.46,11.3" transform="translate(10.29)"/><g class="cls-8"><g class="cls-9"><rect class="cls-6" x="257.51" width="41.44" height="41.44"/></g></g><path class="cls-6" d="M177.16,154.21c-7.63,8.84-13.4,16.37-16.86,21a148.74,148.74,0,0,1-28.73,26.43c-12.34,8.65-27.27,18.85-48.72,21.5-20,2.47-37.1-3.49-48.27-9,7.51,6.07,34.14,26.07,66.7,21.37,15.54-2.24,28.08-9.48,34.19-13a130.62,130.62,0,0,0,33.81-28.61c3.53-4.22,4.79-6.22,14.83-18.83,3-3.85,7.53-9.41,13.06-16,20.21-24.11,30.23-36.31,42-43.75,12.2-7.73,26.44-14.83,42.72-13.8,6,.38,18.52,1,28.07,9.9,11.79,11,14.71,30.37,8.36,49.33-6.84,17.49-15.55,26.2-22.48,30.93-4.53,3.09-17.65,10.87-17.65,10.87a35.93,35.93,0,0,0,19.78,1.67c13.18-2.8,20.51-13,26.2-20.9a70.89,70.89,0,0,0,12.54-32.89A59.63,59.63,0,0,0,335.24,127a60.46,60.46,0,0,0-9.78-19.89,62.26,62.26,0,0,0-11.25-11.62S301,84.28,282.34,82.67c-1.59-.13-3.18-.2-4.75-.2-38.48,0-73,40-100.43,71.74" transform="translate(10.29)"/><g class="cls-10"><g class="cls-11"><rect class="cls-6" x="44.87" y="82.47" width="303.49" height="157.72"/></g></g><path class="cls-6" d="M66.77,85.18C61.64,86.84,41.62,94,30.12,114.72c-8.32,15-7.84,29.64-7.62,34.88a58,58,0,0,0,5,22.9c.54,1.18,13.53,28.28,39.59,30.73a42.14,42.14,0,0,0,16.36-1.77c-18.15-8-29-18.31-34.58-24.51-7.89-8.77-10.54-15.22-11.62-18.13-2.05-5.57-3-12-2.69-20.69C35.32,119.18,53.16,109,53.16,109s16.72-13,45-5.2,68.19,61.31,68.19,61.31l11.52-14.19s-24.11-33.65-53.23-54.41A70.43,70.43,0,0,0,83.31,83a57.66,57.66,0,0,0-16.54,2.16" transform="translate(10.29)"/><g class="cls-12"><rect class="cls-6" x="32.08" y="83.02" width="156.03" height="120.86"/></g><path class="cls-6" d="M179.69,183.09s24,24.9,31.21,29.73,36.6,28.61,66.51,22.85S322.93,216,322.93,216s-31.4,16.91-63.54,2.6-55-34.75-67.81-50.91Z" transform="translate(10.29)"/><g class="cls-13"><g class="cls-14"><rect class="cls-6" x="170.84" y="136.8" width="160.94" height="135.5" transform="translate(-58.32 153.06) rotate(-30)"/></g></g><path class="cls-6" d="M255.3,62C208.11,70.5,180,110.87,180,110.87l8.46,12.21c46.45-75.62,112.4-37.53,112.4-37.53,4.16,2,28.51,13.84,36.8,41.5,10.41,34.76-13.92,63-18.05,67.62-3.51,3.89-7.09,7.56-13,10.35-20.5,9.71-45-6.36-48.77-8.92a291.82,291.82,0,0,1-26.08-19.81,291.85,291.85,0,0,1-26.31-25.43l-9.76,11.8s27.3,34.75,68,52.58,62.8,2.41,80.83-20.81,19.88-60.38,7.43-83.24C340.78,90.75,310,60.64,269.87,60.64A81.79,81.79,0,0,0,255.3,62" transform="translate(10.29)"/><g class="cls-15"><g class="cls-16"><rect class="cls-6" x="190.25" y="47.46" width="184.4" height="185.6"/></g></g><path class="cls-6" d="M79.59,61.21C52.35,64.34,32.12,81,32.12,81c-26,21.26-30.7,51-30.7,51s-11.71,50,32.19,80.54S131,194.85,131,194.85s20.76-16.73,31.91-31.22l-9.76-13S125,185.51,98.82,197.08,59.24,210.73,35.14,188c-16-15.12-14.88-36.3-14.84-42.61C20.44,122.74,32,107.11,36,102.18,47.22,90.25,58.09,85.05,64.4,82.67a108.14,108.14,0,0,1,15-4.2,95.31,95.31,0,0,1,38.44,2.62c21.84,6.25,48,28.15,65.77,62.43,1.53-1.73,3.07-3.46,4.64-5.2s3.38-3.73,5.06-5.55C167.09,88.6,126.83,60.71,88.43,60.71a79,79,0,0,0-8.84.5" transform="translate(10.29)"/><g class="cls-17"><rect class="cls-6" y="60.71" width="203.58" height="182.35"/></g><path class="cls-6" d="M203.28,252c-11.15,12.27-22.66,33.08-23.41,57.79,0,0,1.67-20.07,16-34s32.33-24.16,40.69-26.94,31.4-10.78,31.4-10.78-15.42.19-33.07-8.73c0,0-20.44,10.4-31.59,22.66" transform="translate(10.29)"/><g class="cls-18"><g class="cls-19"><rect class="cls-6" x="190.16" y="229.36" width="88.07" height="80.45"/></g></g><path class="cls-6" d="M92,238.09s23,8,31.4,10.78,26.38,13,40.69,26.94,16,34,16,34c-.75-24.71-12.27-45.52-23.41-57.79s-31.59-22.66-31.59-22.66C107.42,238.28,92,238.09,92,238.09" transform="translate(10.29)"/><g class="cls-20"><rect class="cls-6" x="102.29" y="229.36" width="88.07" height="80.45"/></g><polygon class="cls-6" points="175.91 132.93 185.38 144.82 190.21 138.88 181.29 125.68 175.91 132.93"/><g class="cls-21"><rect class="cls-6" x="175.91" y="125.68" width="14.31" height="19.14"/></g><text class="cls-22" transform="translate(405.98 232.77)"><tspan class="cls-23">D</tspan><tspan class="cls-24" x="164.27" y="0">A</tspan><tspan x="314.52" y="0">TENEXUS</tspan></text></g></g></svg>