<svg width="32" height="32" viewBox="0 0 32 32" fill="none" xmlns="http://www.w3.org/2000/svg">
<g id="basil:linkedin-outline">
<path id="Vector" fill-rule="evenodd" clip-rule="evenodd" d="M6.66667 1.66675C5.69421 1.66675 4.76158 2.05306 4.07394 2.74069C3.38631 3.42832 3 4.36095 3 5.33341C3 6.30588 3.38631 7.23851 4.07394 7.92614C4.76158 8.61377 5.69421 9.00008 6.66667 9.00008C7.63913 9.00008 8.57176 8.61377 9.25939 7.92614C9.94703 7.23851 10.3333 6.30588 10.3333 5.33341C10.3333 4.36095 9.94703 3.42832 9.25939 2.74069C8.57176 2.05306 7.63913 1.66675 6.66667 1.66675ZM5 5.33341C5 4.89139 5.17559 4.46746 5.48816 4.1549C5.80072 3.84234 6.22464 3.66675 6.66667 3.66675C7.10869 3.66675 7.53262 3.84234 7.84518 4.1549C8.15774 4.46746 8.33333 4.89139 8.33333 5.33341C8.33333 5.77544 8.15774 6.19937 7.84518 6.51193C7.53262 6.82449 7.10869 7.00008 6.66667 7.00008C6.22464 7.00008 5.80072 6.82449 5.48816 6.51193C5.17559 6.19937 5 5.77544 5 5.33341ZM3 10.6667C3 10.4015 3.10536 10.1472 3.29289 9.95964C3.48043 9.77211 3.73478 9.66675 4 9.66675H9.33333C9.59855 9.66675 9.8529 9.77211 10.0404 9.95964C10.228 10.1472 10.3333 10.4015 10.3333 10.6667V28.0001C10.3333 28.2653 10.228 28.5197 10.0404 28.7072C9.8529 28.8947 9.59855 29.0001 9.33333 29.0001H4C3.73478 29.0001 3.48043 28.8947 3.29289 28.7072C3.10536 28.5197 3 28.2653 3 28.0001V10.6667ZM5 11.6667V27.0001H8.33333V11.6667H5ZM12.3333 10.6667C12.3333 10.4015 12.4387 10.1472 12.6262 9.95964C12.8138 9.77211 13.0681 9.66675 13.3333 9.66675H18.6667C18.9319 9.66675 19.1862 9.77211 19.3738 9.95964C19.5613 10.1472 19.6667 10.4015 19.6667 10.6667V11.2454L20.2467 10.9961C21.2467 10.5687 22.3076 10.301 23.3907 10.2027C27.0907 9.86675 30.3333 12.7734 30.3333 16.5067V28.0001C30.3333 28.2653 30.228 28.5197 30.0404 28.7072C29.8529 28.8947 29.5986 29.0001 29.3333 29.0001H24C23.7348 29.0001 23.4804 28.8947 23.2929 28.7072C23.1054 28.5197 23 28.2653 23 28.0001V18.6667C23 18.2247 22.8244 17.8008 22.5118 17.4882C22.1993 17.1757 21.7754 17.0001 21.3333 17.0001C20.8913 17.0001 20.4674 17.1757 20.1548 17.4882C19.8423 17.8008 19.6667 18.2247 19.6667 18.6667V28.0001C19.6667 28.2653 19.5613 28.5197 19.3738 28.7072C19.1862 28.8947 18.9319 29.0001 18.6667 29.0001H13.3333C13.0681 29.0001 12.8138 28.8947 12.6262 28.7072C12.4387 28.5197 12.3333 28.2653 12.3333 28.0001V10.6667ZM14.3333 11.6667V27.0001H17.6667V18.6667C17.6667 17.6943 18.053 16.7617 18.7406 16.074C19.4282 15.3864 20.3609 15.0001 21.3333 15.0001C22.3058 15.0001 23.2384 15.3864 23.9261 16.074C24.6137 16.7617 25 17.6943 25 18.6667V27.0001H28.3333V16.5067C28.3333 13.9681 26.1187 11.9627 23.5733 12.1947C22.6989 12.2743 21.8423 12.4903 21.0347 12.8347L19.0613 13.6814C18.9091 13.7468 18.7431 13.7733 18.5781 13.7587C18.4131 13.744 18.2543 13.6885 18.116 13.5973C17.9777 13.5061 17.8643 13.382 17.7859 13.2361C17.7074 13.0902 17.6665 12.9271 17.6667 12.7614V11.6667H14.3333Z" fill="white"/>
</g>
</svg>
