<svg width="32" height="32" viewBox="0 0 32 32" fill="none" xmlns="http://www.w3.org/2000/svg">
<rect width="32" height="32" rx="8" fill="#F5F6F8"/>
<path d="M20.5 14.4733V14.0033C20.5 11.424 18.484 9.33331 16 9.33331C13.516 9.33331 11.5 11.424 11.5 14.0033V14.4733C11.5008 15.0343 11.3407 15.5838 11.0387 16.0566L10.3 17.2066C9.62604 18.2566 10.1407 19.684 11.3134 20.016C14.3774 20.8846 17.6226 20.8846 20.6867 20.016C21.8594 19.684 22.374 18.2566 21.7 17.2073L20.9614 16.0573C20.6591 15.5846 20.4988 15.0351 20.4994 14.474L20.5 14.4733Z" stroke="#383838" stroke-width="1.5"/>
<path d="M13 20.6666C13.4367 21.832 14.6147 22.6666 16 22.6666C17.3853 22.6666 18.5633 21.832 19 20.6666" stroke="#383838" stroke-width="1.5" stroke-linecap="round"/>
</svg>
