<svg width="16" height="16" viewBox="0 0 16 16" fill="none" xmlns="http://www.w3.org/2000/svg">
<g id="fluent:phone-arrow-right-24-regular">
<path id="Vector" d="M9.16667 1.33334C9.56449 1.33334 9.94602 1.49138 10.2273 1.77268C10.5086 2.05399 10.6667 2.43552 10.6667 2.83334V6.67934C10.32 6.70645 9.98667 6.77179 9.66667 6.87534V2.83334C9.66667 2.70074 9.61399 2.57356 9.52022 2.47979C9.42645 2.38602 9.29928 2.33334 9.16667 2.33334H4.16667C4.03406 2.33334 3.90688 2.38602 3.81311 2.47979C3.71935 2.57356 3.66667 2.70074 3.66667 2.83334V13.1667C3.66667 13.4427 3.89067 13.6667 4.16667 13.6667H7.58467C7.89273 14.0616 8.26694 14.4002 8.69067 14.6673L4.16667 14.6667C3.76884 14.6667 3.38731 14.5086 3.10601 14.2273C2.8247 13.946 2.66667 13.5645 2.66667 13.1667V2.83334C2.66667 2.43552 2.8247 2.05399 3.10601 1.77268C3.38731 1.49138 3.76884 1.33334 4.16667 1.33334H9.16667ZM11 7.33334C11.9725 7.33334 12.9051 7.71965 13.5927 8.40729C14.2804 9.09492 14.6667 10.0275 14.6667 11C14.6667 11.9725 14.2804 12.9051 13.5927 13.5927C12.9051 14.2804 11.9725 14.6667 11 14.6667C10.0275 14.6667 9.09491 14.2804 8.40728 13.5927C7.71964 12.9051 7.33333 11.9725 7.33333 11C7.33333 10.0275 7.71964 9.09492 8.40728 8.40729C9.09491 7.71965 10.0275 7.33334 11 7.33334ZM11.144 9.05934L11.0973 9.09734L11.0593 9.14401C11.0209 9.19968 11.0003 9.26571 11.0003 9.33334C11.0003 9.40098 11.0209 9.46701 11.0593 9.52268L11.0973 9.56934L12.1947 10.666L8.996 10.6667L8.936 10.672C8.8694 10.6842 8.80808 10.7163 8.76021 10.7642C8.71233 10.8121 8.68017 10.8734 8.668 10.94L8.66267 11L8.668 11.06C8.68017 11.1266 8.71233 11.1879 8.76021 11.2358C8.80808 11.2837 8.8694 11.3158 8.936 11.328L8.996 11.3333L12.196 11.3327L11.0973 12.4307L11.0593 12.4773C11.0154 12.5415 10.9953 12.619 11.0025 12.6964C11.0097 12.7738 11.0438 12.8463 11.0987 12.9013C11.1537 12.9563 11.2262 12.9903 11.3036 12.9975C11.381 13.0047 11.4585 12.9846 11.5227 12.9407L11.5693 12.9027L13.256 11.214L13.28 11.1807L13.308 11.1273L13.3253 11.072L13.332 11.0293V10.9707L13.3253 10.928L13.308 10.8727L13.2807 10.8193L13.2553 10.786L11.5687 9.09734L11.5227 9.05934C11.4752 9.02647 11.42 9.00649 11.3625 9.00134C11.305 8.9962 11.2472 9.00608 11.1947 9.03001L11.144 9.05934ZM6.71733 11.668C6.77289 12.0173 6.86667 12.3505 6.99867 12.6673L5.834 12.6693C5.70139 12.6695 5.57415 12.617 5.48025 12.5234C5.38636 12.4297 5.33351 12.3026 5.33333 12.17C5.33316 12.0374 5.38567 11.9102 5.47931 11.8163C5.57295 11.7224 5.70006 11.6695 5.83267 11.6693L6.71733 11.668Z" fill="#F83E67"/>
</g>
</svg>
