<svg width="137" height="138" viewBox="0 0 137 138" fill="none" xmlns="http://www.w3.org/2000/svg">
<path d="M47.3335 77.9968C47.3335 71.8694 47.3335 68.8036 49.238 66.9013C51.1403 64.9968 54.2062 64.9968 60.3335 64.9968H77.6668C83.7942 64.9968 86.86 64.9968 88.7623 66.9013C90.6668 68.8036 90.6668 71.8694 90.6668 77.9968C90.6668 84.1241 90.6668 87.1899 88.7623 89.0923C86.86 90.9968 83.7942 90.9968 77.6668 90.9968H60.3335C54.2062 90.9968 51.1403 90.9968 49.238 89.0923C47.3335 87.1899 47.3335 84.1241 47.3335 77.9968Z" stroke="url(#paint0_linear_166_205)" stroke-width="3.29063"/>
<path d="M68.9998 82.3301C71.3931 82.3301 73.3332 80.39 73.3332 77.9967C73.3332 75.6035 71.3931 73.6634 68.9998 73.6634C66.6066 73.6634 64.6665 75.6035 64.6665 77.9967C64.6665 80.39 66.6066 82.3301 68.9998 82.3301Z" stroke="url(#paint1_linear_166_205)" stroke-width="3.29063"/>
<path d="M56 64.9967V60.6634C56 57.2156 57.3696 53.909 59.8076 51.471C62.2456 49.033 65.5522 47.6634 69 47.6634C72.4478 47.6634 75.7544 49.033 78.1924 51.471C80.6304 53.909 82 57.2156 82 60.6634V64.9967" stroke="url(#paint2_linear_166_205)" stroke-width="3.29063" stroke-linecap="round"/>
<path d="M89.9062 120.205H104.891C108.865 120.205 112.676 118.626 115.486 115.816C118.296 113.006 119.875 109.195 119.875 105.221V90.2363M119.875 47.4238V32.4395C119.875 28.4653 118.296 24.654 115.486 21.8439C112.676 19.0338 108.865 17.4551 104.891 17.4551H89.9062M47.0938 120.205H32.1094C28.1353 120.205 24.3239 118.626 21.5138 115.816C18.7037 113.006 17.125 109.195 17.125 105.221V90.2363M17.125 47.4238V32.4395C17.125 28.4653 18.7037 24.654 21.5138 21.8439C24.3239 19.0338 28.1353 17.4551 32.1094 17.4551H47.0938" stroke="url(#paint3_linear_166_205)" stroke-width="3.29" stroke-linecap="round" stroke-linejoin="round"/>
<defs>
<linearGradient id="paint0_linear_166_205" x1="69.0002" y1="64.9968" x2="69.0002" y2="90.9968" gradientUnits="userSpaceOnUse">
<stop stop-color="#F83E67"/>
<stop offset="1" stop-color="#A50976"/>
</linearGradient>
<linearGradient id="paint1_linear_166_205" x1="68.9998" y1="73.6634" x2="68.9998" y2="82.3301" gradientUnits="userSpaceOnUse">
<stop stop-color="#F83E67"/>
<stop offset="1" stop-color="#A50976"/>
</linearGradient>
<linearGradient id="paint2_linear_166_205" x1="69" y1="47.6634" x2="69" y2="64.9967" gradientUnits="userSpaceOnUse">
<stop stop-color="#F83E67"/>
<stop offset="1" stop-color="#A50976"/>
</linearGradient>
<linearGradient id="paint3_linear_166_205" x1="68.5" y1="17.4551" x2="68.5" y2="120.205" gradientUnits="userSpaceOnUse">
<stop stop-color="#F83E67"/>
<stop offset="1" stop-color="#A50976"/>
</linearGradient>
</defs>
</svg>
