<svg width="16" height="16" viewBox="0 0 16 16" fill="none" xmlns="http://www.w3.org/2000/svg">
<g id="hugeicons:share-05">
<path id="Vector" d="M12 4.66665C12.516 4.77332 12.906 4.95265 13.2187 5.25065C14 5.99465 14 7.19199 14 9.58665C14 11.9813 14 13.1787 13.2187 13.9227C12.4373 14.6667 11.1807 14.6667 8.66667 14.6667H7.33333C4.81933 14.6667 3.562 14.6667 2.78133 13.9227C2.00067 13.1787 2 11.9813 2 9.58665C2 7.19199 2 5.99465 2.78133 5.25065C3.09467 4.95265 3.484 4.77332 4 4.66665M8.01667 1.33332L8 9.33332M8.01667 1.33332C7.90094 1.33184 7.78879 1.37342 7.702 1.44999C7.098 1.95999 6 3.28599 6 3.28599M8.01667 1.33332C8.12077 1.33947 8.21982 1.38031 8.298 1.44932C8.902 1.95999 10 3.28665 10 3.28665" stroke="#F83E67" stroke-width="1.5" stroke-linecap="round" stroke-linejoin="round"/>
</g>
</svg>
