<svg width="201" height="328" viewBox="0 0 201 328" fill="none" xmlns="http://www.w3.org/2000/svg">
<g clip-path="url(#clip0_452_674)">
<rect x="7" y="7" width="186.974" height="415.497" rx="23.6302" fill="white"/>
<path d="M-32.7119 9.16998L153.213 -10.6153C154.609 2.50541 145.105 14.2737 131.984 15.6699L-14.6901 31.2783C-23.2471 32.1889 -30.922 25.9903 -31.8326 17.4334L-32.7119 9.16998Z" fill="url(#paint0_linear_452_674)"/>
<path d="M-30.8296 36.6519L95.7026 23.187C96.6528 32.1163 90.1845 40.1253 81.2551 41.0755L-18.5648 51.6979C-24.3882 52.3176 -29.6114 48.0991 -30.2311 42.2756L-30.8296 36.6519Z" fill="url(#paint1_linear_452_674)"/>
<path d="M24.6683 128.009C25.8871 128.009 26.9563 128.247 27.876 128.724C28.8067 129.2 29.5213 129.881 30.0199 130.768C30.5296 131.643 30.7844 132.663 30.7844 133.826C30.7844 134.989 30.5296 136.009 30.0199 136.884C29.5213 137.748 28.8067 138.419 27.876 138.895C26.9563 139.371 25.8871 139.61 24.6683 139.61H20.6131V128.009H24.6683ZM24.5852 137.632C25.804 137.632 26.7458 137.299 27.4106 136.635C28.0754 135.97 28.4078 135.034 28.4078 133.826C28.4078 132.618 28.0754 131.676 27.4106 131.001C26.7458 130.314 25.804 129.97 24.5852 129.97H22.9399V137.632H24.5852ZM31.9278 134.973C31.9278 134.042 32.1107 133.217 32.4763 132.496C32.853 131.776 33.3572 131.222 33.9887 130.834C34.6313 130.447 35.346 130.253 36.1327 130.253C36.8196 130.253 37.4179 130.391 37.9276 130.668C38.4484 130.945 38.8639 131.294 39.1741 131.715V130.402H41.5175V139.61H39.1741V138.263C38.875 138.696 38.4595 139.056 37.9276 139.344C37.4069 139.621 36.803 139.759 36.1161 139.759C35.3405 139.759 34.6313 139.56 33.9887 139.161C33.3572 138.762 32.853 138.202 32.4763 137.482C32.1107 136.751 31.9278 135.914 31.9278 134.973ZM39.1741 135.006C39.1741 134.441 39.0633 133.959 38.8417 133.56C38.6201 133.15 38.321 132.84 37.9442 132.629C37.5675 132.408 37.1631 132.297 36.731 132.297C36.2989 132.297 35.9 132.402 35.5344 132.613C35.1687 132.823 34.8696 133.133 34.6369 133.543C34.4153 133.942 34.3045 134.419 34.3045 134.973C34.3045 135.527 34.4153 136.014 34.6369 136.435C34.8696 136.845 35.1687 137.161 35.5344 137.383C35.9111 137.604 36.31 137.715 36.731 137.715C37.1631 137.715 37.5675 137.61 37.9442 137.399C38.321 137.178 38.6201 136.867 38.8417 136.468C39.0633 136.059 39.1741 135.571 39.1741 135.006ZM46.4991 132.313V136.768C46.4991 137.078 46.5711 137.305 46.7151 137.449C46.8702 137.582 47.1251 137.648 47.4796 137.648H48.5599V139.61H47.0974C45.1362 139.61 44.1557 138.657 44.1557 136.751V132.313H43.0587V130.402H44.1557V128.125H46.4991V130.402H48.5599V132.313H46.4991ZM58.7927 134.806C58.7927 135.139 58.7705 135.438 58.7262 135.704H51.9952C52.0506 136.369 52.2833 136.889 52.6932 137.266C53.1032 137.643 53.6073 137.831 54.2056 137.831C55.0699 137.831 55.6848 137.46 56.0504 136.718H58.56C58.2941 137.604 57.7844 138.335 57.031 138.912C56.2776 139.477 55.3524 139.759 54.2555 139.759C53.3691 139.759 52.5713 139.565 51.8622 139.178C51.1642 138.779 50.6157 138.219 50.2169 137.499C49.8291 136.779 49.6352 135.948 49.6352 135.006C49.6352 134.053 49.8291 133.217 50.2169 132.496C50.6046 131.776 51.1476 131.222 51.8456 130.834C52.5436 130.447 53.3469 130.253 54.2555 130.253C55.1308 130.253 55.9119 130.441 56.5989 130.818C57.2969 131.194 57.8343 131.732 58.211 132.43C58.5988 133.117 58.7927 133.909 58.7927 134.806ZM56.3828 134.142C56.3717 133.543 56.1557 133.067 55.7347 132.712C55.3136 132.347 54.7984 132.164 54.189 132.164C53.6128 132.164 53.1253 132.341 52.7265 132.696C52.3387 133.039 52.1004 133.521 52.0118 134.142H56.3828ZM70.4131 139.61H68.0863L62.8178 131.649V139.61H60.4911V127.992H62.8178L68.0863 135.97V127.992H70.4131V139.61Z" fill="black"/>
<path d="M81.2717 134.806C81.2717 135.139 81.2496 135.438 81.2053 135.704H74.4742C74.5296 136.369 74.7623 136.889 75.1722 137.266C75.5822 137.643 76.0863 137.831 76.6847 137.831C77.5489 137.831 78.1638 137.46 78.5295 136.718H81.0391C80.7731 137.604 80.2635 138.335 79.51 138.912C78.7566 139.477 77.8314 139.759 76.7345 139.759C75.8481 139.759 75.0504 139.565 74.3413 139.178C73.6432 138.779 73.0948 138.219 72.6959 137.499C72.3081 136.779 72.1142 135.948 72.1142 135.006C72.1142 134.053 72.3081 133.217 72.6959 132.496C73.0837 131.776 73.6266 131.222 74.3246 130.834C75.0227 130.447 75.826 130.253 76.7345 130.253C77.6098 130.253 78.391 130.441 79.0779 130.818C79.776 131.194 80.3133 131.732 80.69 132.43C81.0778 133.117 81.2717 133.909 81.2717 134.806ZM78.8619 134.142C78.8508 133.543 78.6347 133.067 78.2137 132.712C77.7926 132.347 77.2774 132.164 76.668 132.164C76.0919 132.164 75.6044 132.341 75.2055 132.696C74.8177 133.039 74.5795 133.521 74.4908 134.142H78.8619ZM88.0558 139.61L86.1611 136.751L84.4825 139.61H81.9895L84.9977 134.989L81.9563 130.402H84.5822L86.4603 133.244L88.1555 130.402H90.6485L87.6237 134.989L90.6817 139.61H88.0558ZM100.638 130.402V139.61H98.2943V138.446C97.9951 138.845 97.6018 139.161 97.1143 139.394C96.6378 139.615 96.1171 139.726 95.552 139.726C94.8318 139.726 94.1947 139.576 93.6407 139.277C93.0867 138.967 92.649 138.518 92.3277 137.931C92.0175 137.333 91.8624 136.624 91.8624 135.804V130.402H94.1892V135.471C94.1892 136.203 94.372 136.768 94.7376 137.166C95.1032 137.554 95.6018 137.748 96.2334 137.748C96.876 137.748 97.3802 137.554 97.7458 137.166C98.1114 136.768 98.2943 136.203 98.2943 135.471V130.402H100.638ZM106.457 139.759C105.703 139.759 105.028 139.626 104.429 139.36C103.831 139.083 103.354 138.712 103 138.247C102.656 137.781 102.468 137.266 102.435 136.701H104.778C104.823 137.056 104.994 137.349 105.293 137.582C105.604 137.815 105.986 137.931 106.44 137.931C106.883 137.931 107.227 137.842 107.471 137.665C107.725 137.488 107.853 137.261 107.853 136.984C107.853 136.685 107.698 136.463 107.388 136.319C107.088 136.164 106.606 135.998 105.942 135.82C105.255 135.654 104.69 135.482 104.246 135.305C103.814 135.128 103.438 134.856 103.116 134.491C102.806 134.125 102.651 133.632 102.651 133.012C102.651 132.502 102.795 132.036 103.083 131.615C103.382 131.194 103.803 130.862 104.346 130.618C104.9 130.375 105.548 130.253 106.291 130.253C107.388 130.253 108.263 130.53 108.917 131.084C109.57 131.627 109.93 132.363 109.997 133.294H107.77C107.737 132.928 107.581 132.64 107.304 132.43C107.039 132.208 106.678 132.097 106.224 132.097C105.803 132.097 105.476 132.175 105.244 132.33C105.022 132.485 104.911 132.701 104.911 132.978C104.911 133.289 105.066 133.527 105.377 133.693C105.687 133.848 106.169 134.009 106.822 134.175C107.487 134.341 108.036 134.513 108.468 134.69C108.9 134.867 109.271 135.144 109.581 135.521C109.903 135.887 110.069 136.374 110.08 136.984C110.08 137.516 109.93 137.992 109.631 138.413C109.343 138.834 108.922 139.166 108.368 139.41C107.825 139.643 107.188 139.759 106.457 139.759Z" fill="url(#paint2_linear_452_674)"/>
<path d="M23.1015 153.798V154.336H20.8984V156.045H22.6871V156.583H20.8984V158.866H20.2367V153.798H23.1015ZM24.2424 154.234C24.1164 154.234 24.0097 154.19 23.9225 154.103C23.8352 154.016 23.7916 153.909 23.7916 153.783C23.7916 153.657 23.8352 153.551 23.9225 153.463C24.0097 153.376 24.1164 153.332 24.2424 153.332C24.3636 153.332 24.4654 153.376 24.5478 153.463C24.6351 153.551 24.6787 153.657 24.6787 153.783C24.6787 153.909 24.6351 154.016 24.5478 154.103C24.4654 154.19 24.3636 154.234 24.2424 154.234ZM24.5624 154.881V158.866H23.9007V154.881H24.5624ZM27.6315 154.809C28.1162 154.809 28.5089 154.956 28.8094 155.252C29.11 155.543 29.2602 155.965 29.2602 156.517V158.866H28.6058V156.612C28.6058 156.214 28.5065 155.911 28.3077 155.703C28.109 155.49 27.8375 155.383 27.4933 155.383C27.1443 155.383 26.8656 155.492 26.6571 155.71C26.4536 155.928 26.3518 156.246 26.3518 156.663V158.866H25.6901V154.881H26.3518V155.448C26.4826 155.245 26.6596 155.087 26.8826 154.976C27.1104 154.864 27.36 154.809 27.6315 154.809ZM30.0939 156.859C30.0939 156.452 30.1763 156.096 30.3411 155.79C30.5059 155.48 30.7313 155.24 31.0173 155.07C31.3082 154.901 31.6329 154.816 31.9916 154.816C32.3019 154.816 32.5903 154.888 32.8569 155.034C33.1235 155.175 33.3271 155.361 33.4677 155.594V153.485H34.1367V158.866H33.4677V158.117C33.3368 158.354 33.1429 158.551 32.886 158.706C32.6291 158.856 32.3285 158.931 31.9844 158.931C31.6305 158.931 31.3082 158.844 31.0173 158.67C30.7313 158.495 30.5059 158.25 30.3411 157.935C30.1763 157.62 30.0939 157.261 30.0939 156.859ZM33.4677 156.866C33.4677 156.566 33.4071 156.304 33.2859 156.081C33.1647 155.858 32.9999 155.688 32.7915 155.572C32.5879 155.451 32.3625 155.39 32.1153 155.39C31.868 155.39 31.6426 155.448 31.439 155.565C31.2354 155.681 31.0731 155.851 30.9519 156.074C30.8307 156.297 30.7701 156.558 30.7701 156.859C30.7701 157.164 30.8307 157.431 30.9519 157.659C31.0731 157.882 31.2354 158.054 31.439 158.175C31.6426 158.291 31.868 158.35 32.1153 158.35C32.3625 158.35 32.5879 158.291 32.7915 158.175C32.9999 158.054 33.1647 157.882 33.2859 157.659C33.4071 157.431 33.4677 157.167 33.4677 156.866ZM37.855 158.328H39.6292V158.866H37.1933V153.798H37.855V158.328ZM42.0697 158.931C41.6964 158.931 41.3571 158.846 41.0517 158.677C40.7512 158.507 40.5137 158.267 40.3392 157.957C40.1695 157.642 40.0847 157.278 40.0847 156.866C40.0847 156.459 40.1719 156.1 40.3464 155.79C40.5258 155.475 40.7682 155.235 41.0735 155.07C41.3789 154.901 41.7207 154.816 42.0988 154.816C42.4769 154.816 42.8186 154.901 43.124 155.07C43.4294 155.235 43.6694 155.473 43.8439 155.783C44.0232 156.093 44.1129 156.454 44.1129 156.866C44.1129 157.278 44.0208 157.642 43.8366 157.957C43.6572 158.267 43.4124 158.507 43.1022 158.677C42.792 158.846 42.4478 158.931 42.0697 158.931ZM42.0697 158.35C42.3072 158.35 42.5302 158.294 42.7386 158.182C42.9471 158.071 43.1143 157.904 43.2404 157.681C43.3712 157.458 43.4367 157.186 43.4367 156.866C43.4367 156.546 43.3737 156.275 43.2476 156.052C43.1216 155.829 42.9568 155.664 42.7532 155.557C42.5496 155.446 42.329 155.39 42.0915 155.39C41.8491 155.39 41.6262 155.446 41.4226 155.557C41.2238 155.664 41.0638 155.829 40.9427 156.052C40.8215 156.275 40.7609 156.546 40.7609 156.866C40.7609 157.191 40.8191 157.465 40.9354 157.688C41.0566 157.911 41.2165 158.078 41.4153 158.19C41.614 158.296 41.8322 158.35 42.0697 158.35ZM46.4662 158.255L47.7023 154.881H48.4076L46.8443 158.866H46.0736L44.5103 154.881H45.2228L46.4662 158.255ZM52.6943 156.721C52.6943 156.847 52.6871 156.98 52.6725 157.121H49.4877C49.512 157.513 49.6453 157.821 49.8877 158.044C50.1349 158.262 50.433 158.371 50.782 158.371C51.068 158.371 51.3055 158.306 51.4946 158.175C51.6885 158.039 51.8242 157.86 51.9018 157.637H52.6144C52.5077 158.02 52.2944 158.333 51.9745 158.575C51.6546 158.813 51.2571 158.931 50.782 158.931C50.4039 158.931 50.0646 158.846 49.764 158.677C49.4683 158.507 49.2357 158.267 49.066 157.957C48.8963 157.642 48.8115 157.278 48.8115 156.866C48.8115 156.454 48.8939 156.093 49.0587 155.783C49.2236 155.473 49.4538 155.235 49.7495 155.07C50.05 154.901 50.3942 154.816 50.782 154.816C51.1601 154.816 51.4946 154.898 51.7854 155.063C52.0763 155.228 52.2993 155.456 52.4544 155.747C52.6144 156.033 52.6943 156.357 52.6943 156.721ZM52.0108 156.583C52.0108 156.331 51.9551 156.115 51.8436 155.936C51.7321 155.751 51.5794 155.613 51.3855 155.521C51.1965 155.424 50.9856 155.376 50.7529 155.376C50.4185 155.376 50.1325 155.482 49.8949 155.696C49.6622 155.909 49.5289 156.205 49.495 156.583H52.0108ZM57.8039 158.917C57.3337 158.917 56.9047 158.808 56.5169 158.59C56.1291 158.367 55.8213 158.059 55.5935 157.666C55.3705 157.269 55.259 156.823 55.259 156.328C55.259 155.834 55.3705 155.39 55.5935 154.998C55.8213 154.6 56.1291 154.292 56.5169 154.074C56.9047 153.851 57.3337 153.74 57.8039 153.74C58.279 153.74 58.7104 153.851 59.0982 154.074C59.486 154.292 59.7914 154.598 60.0144 154.99C60.2374 155.383 60.3489 155.829 60.3489 156.328C60.3489 156.827 60.2374 157.273 60.0144 157.666C59.7914 158.059 59.486 158.367 59.0982 158.59C58.7104 158.808 58.279 158.917 57.8039 158.917ZM57.8039 158.342C58.1578 158.342 58.4753 158.26 58.7565 158.095C59.0425 157.93 59.2655 157.695 59.4254 157.39C59.5902 157.084 59.6726 156.731 59.6726 156.328C59.6726 155.921 59.5902 155.567 59.4254 155.267C59.2655 154.961 59.0449 154.726 58.7637 154.561C58.4826 154.396 58.1627 154.314 57.8039 154.314C57.4452 154.314 57.1253 154.396 56.8441 154.561C56.563 154.726 56.34 154.961 56.1752 155.267C56.0152 155.567 55.9352 155.921 55.9352 156.328C55.9352 156.731 56.0152 157.084 56.1752 157.39C56.34 157.695 56.563 157.93 56.8441 158.095C57.1301 158.26 57.4501 158.342 57.8039 158.342ZM63.1638 154.809C63.6485 154.809 64.0412 154.956 64.3417 155.252C64.6423 155.543 64.7925 155.965 64.7925 156.517V158.866H64.1381V156.612C64.1381 156.214 64.0388 155.911 63.84 155.703C63.6413 155.49 63.3698 155.383 63.0256 155.383C62.6766 155.383 62.3979 155.492 62.1894 155.71C61.9858 155.928 61.8841 156.246 61.8841 156.663V158.866H61.2224V154.881H61.8841V155.448C62.0149 155.245 62.1919 155.087 62.4148 154.976C62.6427 154.864 62.8923 154.809 63.1638 154.809ZM65.6262 156.866C65.6262 156.454 65.7086 156.096 65.8734 155.79C66.0382 155.48 66.266 155.24 66.5569 155.07C66.8526 154.901 67.1895 154.816 67.5676 154.816C68.0572 154.816 68.4595 154.935 68.7746 155.172C69.0945 155.41 69.3054 155.739 69.4072 156.161H68.6946C68.6267 155.919 68.4934 155.727 68.2947 155.587C68.1008 155.446 67.8584 155.376 67.5676 155.376C67.1895 155.376 66.8841 155.507 66.6514 155.768C66.4187 156.025 66.3024 156.391 66.3024 156.866C66.3024 157.346 66.4187 157.717 66.6514 157.979C66.8841 158.241 67.1895 158.371 67.5676 158.371C67.8584 158.371 68.1008 158.304 68.2947 158.168C68.4886 158.032 68.6219 157.838 68.6946 157.586H69.4072C69.3005 157.993 69.0873 158.321 68.7673 158.568C68.4474 158.81 68.0475 158.931 67.5676 158.931C67.1895 158.931 66.8526 158.846 66.5569 158.677C66.266 158.507 66.0382 158.267 65.8734 157.957C65.7086 157.647 65.6262 157.283 65.6262 156.866ZM72.2678 154.809C72.5684 154.809 72.8398 154.874 73.0822 155.005C73.3246 155.131 73.5136 155.322 73.6494 155.579C73.7899 155.836 73.8602 156.149 73.8602 156.517V158.866H73.2058V156.612C73.2058 156.214 73.1064 155.911 72.9077 155.703C72.709 155.49 72.4375 155.383 72.0933 155.383C71.7443 155.383 71.4656 155.492 71.2571 155.71C71.0535 155.928 70.9517 156.246 70.9517 156.663V158.866H70.2901V153.485H70.9517V155.448C71.0826 155.245 71.262 155.087 71.4898 154.976C71.7225 154.864 71.9818 154.809 72.2678 154.809ZM74.6939 156.859C74.6939 156.452 74.7763 156.096 74.9411 155.79C75.1059 155.48 75.3313 155.24 75.6173 155.07C75.9081 154.901 76.2305 154.816 76.5844 154.816C76.9334 154.816 77.2364 154.891 77.4933 155.041C77.7502 155.191 77.9417 155.381 78.0677 155.608V154.881H78.7366V158.866H78.0677V158.124C77.9368 158.357 77.7405 158.551 77.4787 158.706C77.2218 158.856 76.9213 158.931 76.5771 158.931C76.2232 158.931 75.9033 158.844 75.6173 158.67C75.3313 158.495 75.1059 158.25 74.9411 157.935C74.7763 157.62 74.6939 157.261 74.6939 156.859ZM78.0677 156.866C78.0677 156.566 78.0071 156.304 77.8859 156.081C77.7647 155.858 77.5999 155.688 77.3915 155.572C77.1879 155.451 76.9625 155.39 76.7152 155.39C76.468 155.39 76.2426 155.448 76.039 155.565C75.8354 155.681 75.673 155.851 75.5519 156.074C75.4307 156.297 75.3701 156.558 75.3701 156.859C75.3701 157.164 75.4307 157.431 75.5519 157.659C75.673 157.882 75.8354 158.054 76.039 158.175C76.2426 158.291 76.468 158.35 76.7152 158.35C76.9625 158.35 77.1879 158.291 77.3915 158.175C77.5999 158.054 77.7647 157.882 77.8859 157.659C78.0071 157.431 78.0677 157.167 78.0677 156.866ZM80.1966 154.234C80.0705 154.234 79.9639 154.19 79.8766 154.103C79.7894 154.016 79.7457 153.909 79.7457 153.783C79.7457 153.657 79.7894 153.551 79.8766 153.463C79.9639 153.376 80.0705 153.332 80.1966 153.332C80.3177 153.332 80.4195 153.376 80.502 153.463C80.5892 153.551 80.6328 153.657 80.6328 153.783C80.6328 153.909 80.5892 154.016 80.502 154.103C80.4195 154.19 80.3177 154.234 80.1966 154.234ZM80.5165 154.881V158.866H79.8548V154.881H80.5165ZM83.5856 154.809C84.0704 154.809 84.463 154.956 84.7636 155.252C85.0641 155.543 85.2144 155.965 85.2144 156.517V158.866H84.56V156.612C84.56 156.214 84.4606 155.911 84.2618 155.703C84.0631 155.49 83.7916 155.383 83.4475 155.383C83.0984 155.383 82.8197 155.492 82.6113 155.71C82.4077 155.928 82.3059 156.246 82.3059 156.663V158.866H81.6442V154.881H82.3059V155.448C82.4368 155.245 82.6137 155.087 82.8367 154.976C83.0645 154.864 83.3142 154.809 83.5856 154.809Z" fill="#A3A3A3"/>
<rect x="19.4663" y="197.609" width="162.045" height="22.8525" rx="6.23246" fill="#F5F6F8"/>
<path d="M32.9763 207.478V208.93H34.5593V209.398H32.9763V210.894H34.7463V211.361H32.4091V207.011H34.7463V207.478H32.9763ZM37.2685 207.883C37.684 207.883 38.0206 208.01 38.2782 208.264C38.5358 208.513 38.6646 208.874 38.6646 209.348V211.361H38.1037V209.429C38.1037 209.088 38.0185 208.829 37.8481 208.65C37.6778 208.467 37.4451 208.376 37.1501 208.376C36.8509 208.376 36.612 208.469 36.4334 208.656C36.2589 208.843 36.1716 209.115 36.1716 209.473V211.361H35.6044V207.946H36.1716V208.432C36.2838 208.257 36.4354 208.122 36.6266 208.027C36.8219 207.931 37.0358 207.883 37.2685 207.883ZM40.2828 208.413V210.426C40.2828 210.592 40.3182 210.711 40.3888 210.781C40.4594 210.848 40.582 210.881 40.7565 210.881H41.1741V211.361H40.663C40.3472 211.361 40.1104 211.288 39.9525 211.143C39.7946 210.997 39.7157 210.759 39.7157 210.426V208.413H39.2732V207.946H39.7157V207.086H40.2828V207.946H41.1741V208.413H40.2828ZM44.9775 209.522C44.9775 209.631 44.9712 209.745 44.9588 209.865H42.229C42.2497 210.202 42.364 210.466 42.5718 210.657C42.7837 210.844 43.0392 210.937 43.3383 210.937C43.5835 210.937 43.7871 210.881 43.9491 210.769C44.1153 210.653 44.2317 210.499 44.2981 210.308H44.9089C44.8175 210.636 44.6347 210.904 44.3605 211.112C44.0862 211.315 43.7455 211.417 43.3383 211.417C43.0143 211.417 42.7234 211.344 42.4658 211.199C42.2123 211.054 42.0129 210.848 41.8675 210.582C41.7221 210.312 41.6493 210 41.6493 209.647C41.6493 209.294 41.72 208.984 41.8613 208.718C42.0025 208.453 42.1999 208.249 42.4533 208.108C42.7109 207.962 43.0059 207.89 43.3383 207.89C43.6624 207.89 43.9491 207.96 44.1984 208.101C44.4477 208.243 44.6388 208.438 44.7718 208.687C44.9089 208.932 44.9775 209.211 44.9775 209.522ZM44.3916 209.404C44.3916 209.188 44.3438 209.003 44.2483 208.849C44.1527 208.691 44.0218 208.573 43.8556 208.494C43.6936 208.411 43.5129 208.369 43.3134 208.369C43.0267 208.369 42.7816 208.461 42.578 208.644C42.3785 208.827 42.2643 209.08 42.2352 209.404H44.3916ZM46.2933 208.5C46.393 208.305 46.5342 208.153 46.7171 208.045C46.904 207.937 47.1305 207.883 47.3964 207.883V208.469H47.2468C46.6111 208.469 46.2933 208.814 46.2933 209.504V211.361H45.7261V207.946H46.2933V208.5ZM52.6544 207.946L50.5977 212.969H50.0118L50.6849 211.324L49.3076 207.946H49.9371L51.009 210.713L52.0686 207.946H52.6544ZM54.7141 211.417C54.3942 211.417 54.1033 211.344 53.8415 211.199C53.5839 211.054 53.3803 210.848 53.2308 210.582C53.0853 210.312 53.0126 210 53.0126 209.647C53.0126 209.298 53.0874 208.991 53.237 208.725C53.3907 208.455 53.5985 208.249 53.8602 208.108C54.122 207.962 54.4149 207.89 54.739 207.89C55.0631 207.89 55.356 207.962 55.6178 208.108C55.8796 208.249 56.0852 208.453 56.2348 208.718C56.3885 208.984 56.4654 209.294 56.4654 209.647C56.4654 210 56.3865 210.312 56.2286 210.582C56.0748 210.848 55.865 211.054 55.5991 211.199C55.3332 211.344 55.0382 211.417 54.7141 211.417ZM54.7141 210.919C54.9177 210.919 55.1088 210.871 55.2875 210.775C55.4661 210.68 55.6095 210.536 55.7175 210.345C55.8297 210.154 55.8858 209.921 55.8858 209.647C55.8858 209.373 55.8318 209.14 55.7237 208.949C55.6157 208.758 55.4744 208.617 55.2999 208.525C55.1254 208.43 54.9364 208.382 54.7328 208.382C54.525 208.382 54.3339 208.43 54.1594 208.525C53.989 208.617 53.8519 208.758 53.7481 208.949C53.6442 209.14 53.5922 209.373 53.5922 209.647C53.5922 209.926 53.6421 210.16 53.7418 210.351C53.8457 210.543 53.9828 210.686 54.1532 210.781C54.3235 210.873 54.5105 210.919 54.7141 210.919ZM60.2401 207.946V211.361H59.6729V210.856C59.5649 211.031 59.4132 211.168 59.218 211.268C59.0268 211.363 58.8149 211.411 58.5823 211.411C58.3163 211.411 58.0774 211.357 57.8655 211.249C57.6536 211.137 57.4853 210.97 57.3607 210.75C57.2402 210.53 57.1799 210.262 57.1799 209.946V207.946H57.7409V209.871C57.7409 210.208 57.826 210.468 57.9964 210.651C58.1668 210.829 58.3994 210.919 58.6944 210.919C58.9977 210.919 59.2367 210.825 59.4112 210.638C59.5857 210.451 59.6729 210.179 59.6729 209.822V207.946H60.2401ZM61.7648 208.5C61.8646 208.305 62.0058 208.153 62.1887 208.045C62.3756 207.937 62.6021 207.883 62.868 207.883V208.469H62.7184C62.0827 208.469 61.7648 208.814 61.7648 209.504V211.361H61.1977V207.946H61.7648V208.5ZM68.3005 209.522C68.3005 209.631 68.2943 209.745 68.2818 209.865H65.552C65.5728 210.202 65.687 210.466 65.8948 210.657C66.1067 210.844 66.3622 210.937 66.6614 210.937C66.9065 210.937 67.1101 210.881 67.2721 210.769C67.4383 210.653 67.5547 210.499 67.6212 210.308H68.2319C68.1405 210.636 67.9577 210.904 67.6835 211.112C67.4093 211.315 67.0686 211.417 66.6614 211.417C66.3373 211.417 66.0464 211.344 65.7888 211.199C65.5354 211.054 65.3359 210.848 65.1905 210.582C65.0451 210.312 64.9724 210 64.9724 209.647C64.9724 209.294 65.043 208.984 65.1843 208.718C65.3255 208.453 65.5229 208.249 65.7764 208.108C66.034 207.962 66.329 207.89 66.6614 207.89C66.9855 207.89 67.2721 207.96 67.5214 208.101C67.7707 208.243 67.9619 208.438 68.0948 208.687C68.2319 208.932 68.3005 209.211 68.3005 209.522ZM67.7146 209.404C67.7146 209.188 67.6669 209.003 67.5713 208.849C67.4757 208.691 67.3449 208.573 67.1787 208.494C67.0166 208.411 66.8359 208.369 66.6364 208.369C66.3497 208.369 66.1046 208.461 65.901 208.644C65.7016 208.827 65.5873 209.08 65.5582 209.404H67.7146ZM73.1563 207.883C73.4222 207.883 73.6591 207.939 73.8668 208.052C74.0746 208.16 74.2387 208.324 74.3592 208.544C74.4797 208.764 74.5399 209.032 74.5399 209.348V211.361H73.979V209.429C73.979 209.088 73.8938 208.829 73.7235 208.65C73.5573 208.467 73.3308 208.376 73.0441 208.376C72.7491 208.376 72.5144 208.471 72.3399 208.662C72.1654 208.849 72.0781 209.122 72.0781 209.479V211.361H71.5172V209.429C71.5172 209.088 71.432 208.829 71.2616 208.65C71.0954 208.467 70.869 208.376 70.5823 208.376C70.2873 208.376 70.0525 208.471 69.878 208.662C69.7035 208.849 69.6163 209.122 69.6163 209.479V211.361H69.0491V207.946H69.6163V208.438C69.7285 208.259 69.878 208.122 70.065 208.027C70.2561 207.931 70.466 207.883 70.6945 207.883C70.9812 207.883 71.2346 207.948 71.4549 208.077C71.6751 208.205 71.8392 208.394 71.9472 208.644C72.0428 208.403 72.2007 208.216 72.4209 208.083C72.6411 207.95 72.8862 207.883 73.1563 207.883ZM75.2584 209.641C75.2584 209.292 75.329 208.986 75.4703 208.725C75.6115 208.459 75.8047 208.253 76.0499 208.108C76.2992 207.962 76.5755 207.89 76.8788 207.89C77.178 207.89 77.4376 207.954 77.6579 208.083C77.8781 208.212 78.0422 208.374 78.1502 208.569V207.946H78.7236V211.361H78.1502V210.725C78.038 210.925 77.8698 211.091 77.6454 211.224C77.4252 211.353 77.1676 211.417 76.8726 211.417C76.5692 211.417 76.295 211.342 76.0499 211.193C75.8047 211.043 75.6115 210.833 75.4703 210.563C75.329 210.293 75.2584 209.986 75.2584 209.641ZM78.1502 209.647C78.1502 209.39 78.0983 209.165 77.9944 208.974C77.8905 208.783 77.7493 208.637 77.5706 208.538C77.3961 208.434 77.2029 208.382 76.991 208.382C76.7791 208.382 76.5859 208.432 76.4114 208.532C76.2369 208.631 76.0977 208.777 75.9938 208.968C75.8899 209.159 75.838 209.383 75.838 209.641C75.838 209.903 75.8899 210.131 75.9938 210.326C76.0977 210.518 76.2369 210.665 76.4114 210.769C76.5859 210.869 76.7791 210.919 76.991 210.919C77.2029 210.919 77.3961 210.869 77.5706 210.769C77.7493 210.665 77.8905 210.518 77.9944 210.326C78.0983 210.131 78.1502 209.905 78.1502 209.647ZM79.975 207.391C79.8669 207.391 79.7755 207.354 79.7007 207.279C79.6259 207.204 79.5885 207.113 79.5885 207.005C79.5885 206.897 79.6259 206.805 79.7007 206.73C79.7755 206.656 79.8669 206.618 79.975 206.618C80.0788 206.618 80.1661 206.656 80.2367 206.73C80.3115 206.805 80.3489 206.897 80.3489 207.005C80.3489 207.113 80.3115 207.204 80.2367 207.279C80.1661 207.354 80.0788 207.391 79.975 207.391ZM80.2492 207.946V211.361H79.682V207.946H80.2492ZM81.783 206.749V211.361H81.2158V206.749H81.783ZM84.1993 209.641C84.1993 209.292 84.2699 208.986 84.4112 208.725C84.5524 208.459 84.7456 208.253 84.9908 208.108C85.2401 207.962 85.5164 207.89 85.8197 207.89C86.1188 207.89 86.3785 207.954 86.5987 208.083C86.819 208.212 86.9831 208.374 87.0911 208.569V207.946H87.6645V211.361H87.0911V210.725C86.9789 210.925 86.8107 211.091 86.5863 211.224C86.3661 211.353 86.1085 211.417 85.8135 211.417C85.5101 211.417 85.2359 211.342 84.9908 211.193C84.7456 211.043 84.5524 210.833 84.4112 210.563C84.2699 210.293 84.1993 209.986 84.1993 209.641ZM87.0911 209.647C87.0911 209.39 87.0392 209.165 86.9353 208.974C86.8314 208.783 86.6902 208.637 86.5115 208.538C86.337 208.434 86.1438 208.382 85.9319 208.382C85.72 208.382 85.5268 208.432 85.3523 208.532C85.1777 208.631 85.0386 208.777 84.9347 208.968C84.8308 209.159 84.7789 209.383 84.7789 209.641C84.7789 209.903 84.8308 210.131 84.9347 210.326C85.0386 210.518 85.1777 210.665 85.3523 210.769C85.5268 210.869 85.72 210.919 85.9319 210.919C86.1438 210.919 86.337 210.869 86.5115 210.769C86.6902 210.665 86.8314 210.518 86.9353 210.326C87.0392 210.131 87.0911 209.905 87.0911 209.647ZM88.411 209.641C88.411 209.292 88.4817 208.986 88.6229 208.725C88.7642 208.459 88.9574 208.253 89.2025 208.108C89.4518 207.962 89.7302 207.89 90.0377 207.89C90.3036 207.89 90.5508 207.952 90.7794 208.077C91.0079 208.197 91.1824 208.357 91.3029 208.556V206.749H91.8763V211.361H91.3029V210.719C91.1907 210.923 91.0245 211.091 90.8043 211.224C90.5841 211.353 90.3265 211.417 90.0315 211.417C89.7282 211.417 89.4518 211.342 89.2025 211.193C88.9574 211.043 88.7642 210.833 88.6229 210.563C88.4817 210.293 88.411 209.986 88.411 209.641ZM91.3029 209.647C91.3029 209.39 91.251 209.165 91.1471 208.974C91.0432 208.783 90.9019 208.637 90.7233 208.538C90.5488 208.434 90.3556 208.382 90.1437 208.382C89.9317 208.382 89.7385 208.432 89.564 208.532C89.3895 208.631 89.2503 208.777 89.1465 208.968C89.0426 209.159 88.9906 209.383 88.9906 209.641C88.9906 209.903 89.0426 210.131 89.1465 210.326C89.2503 210.518 89.3895 210.665 89.564 210.769C89.7385 210.869 89.9317 210.919 90.1437 210.919C90.3556 210.919 90.5488 210.869 90.7233 210.769C90.9019 210.665 91.0432 210.518 91.1471 210.326C91.251 210.131 91.3029 209.905 91.3029 209.647ZM92.6228 209.641C92.6228 209.292 92.6934 208.986 92.8347 208.725C92.976 208.459 93.1692 208.253 93.4143 208.108C93.6636 207.962 93.942 207.89 94.2495 207.89C94.5154 207.89 94.7626 207.952 94.9911 208.077C95.2197 208.197 95.3942 208.357 95.5147 208.556V206.749H96.0881V211.361H95.5147V210.719C95.4025 210.923 95.2363 211.091 95.0161 211.224C94.7959 211.353 94.5382 211.417 94.2432 211.417C93.9399 211.417 93.6636 211.342 93.4143 211.193C93.1692 211.043 92.976 210.833 92.8347 210.563C92.6934 210.293 92.6228 209.986 92.6228 209.641ZM95.5147 209.647C95.5147 209.39 95.4627 209.165 95.3589 208.974C95.255 208.783 95.1137 208.637 94.935 208.538C94.7605 208.434 94.5673 208.382 94.3554 208.382C94.1435 208.382 93.9503 208.432 93.7758 208.532C93.6013 208.631 93.4621 208.777 93.3582 208.968C93.2544 209.159 93.2024 209.383 93.2024 209.641C93.2024 209.903 93.2544 210.131 93.3582 210.326C93.4621 210.518 93.6013 210.665 93.7758 210.769C93.9503 210.869 94.1435 210.919 94.3554 210.919C94.5673 210.919 94.7605 210.869 94.935 210.769C95.1137 210.665 95.255 210.518 95.3589 210.326C95.4627 210.131 95.5147 209.905 95.5147 209.647ZM97.6136 208.5C97.7134 208.305 97.8546 208.153 98.0374 208.045C98.2244 207.937 98.4509 207.883 98.7168 207.883V208.469H98.5672C97.9315 208.469 97.6136 208.814 97.6136 209.504V211.361H97.0465V207.946H97.6136V208.5ZM102.488 209.522C102.488 209.631 102.481 209.745 102.469 209.865H99.7392C99.76 210.202 99.8742 210.466 100.082 210.657C100.294 210.844 100.549 210.937 100.849 210.937C101.094 210.937 101.297 210.881 101.459 210.769C101.626 210.653 101.742 210.499 101.808 210.308H102.419C102.328 210.636 102.145 210.904 101.871 211.112C101.596 211.315 101.256 211.417 100.849 211.417C100.524 211.417 100.234 211.344 99.976 211.199C99.7226 211.054 99.5231 210.848 99.3777 210.582C99.2323 210.312 99.1596 210 99.1596 209.647C99.1596 209.294 99.2302 208.984 99.3715 208.718C99.5128 208.453 99.7101 208.249 99.9636 208.108C100.221 207.962 100.516 207.89 100.849 207.89C101.173 207.89 101.459 207.96 101.709 208.101C101.958 208.243 102.149 208.438 102.282 208.687C102.419 208.932 102.488 209.211 102.488 209.522ZM101.902 209.404C101.902 209.188 101.854 209.003 101.759 208.849C101.663 208.691 101.532 208.573 101.366 208.494C101.204 208.411 101.023 208.369 100.824 208.369C100.537 208.369 100.292 208.461 100.088 208.644C99.8888 208.827 99.7745 209.08 99.7454 209.404H101.902ZM104.445 211.417C104.184 211.417 103.949 211.374 103.741 211.286C103.533 211.195 103.369 211.07 103.249 210.912C103.128 210.75 103.062 210.565 103.049 210.358H103.635C103.652 210.528 103.731 210.667 103.872 210.775C104.017 210.883 104.207 210.937 104.439 210.937C104.655 210.937 104.826 210.889 104.95 210.794C105.075 210.698 105.137 210.578 105.137 210.432C105.137 210.283 105.071 210.173 104.938 210.102C104.805 210.027 104.599 209.955 104.321 209.884C104.067 209.817 103.86 209.751 103.698 209.685C103.54 209.614 103.403 209.512 103.286 209.379C103.174 209.242 103.118 209.063 103.118 208.843C103.118 208.669 103.17 208.509 103.274 208.363C103.378 208.218 103.525 208.104 103.716 208.02C103.907 207.933 104.126 207.89 104.371 207.89C104.749 207.89 105.054 207.985 105.287 208.176C105.519 208.367 105.644 208.629 105.661 208.962H105.094C105.081 208.783 105.008 208.64 104.875 208.532C104.747 208.423 104.572 208.369 104.352 208.369C104.148 208.369 103.986 208.413 103.866 208.5C103.745 208.588 103.685 208.702 103.685 208.843C103.685 208.955 103.72 209.049 103.791 209.124C103.866 209.194 103.957 209.252 104.065 209.298C104.177 209.34 104.331 209.387 104.526 209.441C104.772 209.508 104.971 209.574 105.125 209.641C105.279 209.703 105.409 209.799 105.517 209.928C105.63 210.056 105.688 210.225 105.692 210.432C105.692 210.619 105.64 210.788 105.536 210.937C105.432 211.087 105.285 211.205 105.094 211.292C104.907 211.376 104.691 211.417 104.445 211.417ZM107.702 211.417C107.44 211.417 107.205 211.374 106.997 211.286C106.79 211.195 106.626 211.07 106.505 210.912C106.385 210.75 106.318 210.565 106.306 210.358H106.891C106.908 210.528 106.987 210.667 107.128 210.775C107.274 210.883 107.463 210.937 107.695 210.937C107.911 210.937 108.082 210.889 108.206 210.794C108.331 210.698 108.393 210.578 108.393 210.432C108.393 210.283 108.327 210.173 108.194 210.102C108.061 210.027 107.855 209.955 107.577 209.884C107.324 209.817 107.116 209.751 106.954 209.685C106.796 209.614 106.659 209.512 106.542 209.379C106.43 209.242 106.374 209.063 106.374 208.843C106.374 208.669 106.426 208.509 106.53 208.363C106.634 208.218 106.781 208.104 106.972 208.02C107.164 207.933 107.382 207.89 107.627 207.89C108.005 207.89 108.31 207.985 108.543 208.176C108.776 208.367 108.9 208.629 108.917 208.962H108.35C108.337 208.783 108.265 208.64 108.132 208.532C108.003 208.423 107.828 208.369 107.608 208.369C107.405 208.369 107.243 208.413 107.122 208.5C107.002 208.588 106.941 208.702 106.941 208.843C106.941 208.955 106.977 209.049 107.047 209.124C107.122 209.194 107.213 209.252 107.321 209.298C107.434 209.34 107.587 209.387 107.783 209.441C108.028 209.508 108.227 209.574 108.381 209.641C108.535 209.703 108.666 209.799 108.774 209.928C108.886 210.056 108.944 210.225 108.948 210.432C108.948 210.619 108.896 210.788 108.792 210.937C108.688 211.087 108.541 211.205 108.35 211.292C108.163 211.376 107.947 211.417 107.702 211.417Z" fill="#CFCFCF"/>
<path d="M20.6879 186.017V187.712H22.5348V188.257H20.6879V190.002H22.7529V190.547H20.0262V185.472H22.7529V186.017H20.6879ZM28.5458 186.49C28.8561 186.49 29.1324 186.556 29.3747 186.686C29.6171 186.812 29.8086 187.004 29.9492 187.261C30.0897 187.518 30.16 187.83 30.16 188.199V190.547H29.5056V188.293C29.5056 187.896 29.4062 187.593 29.2075 187.384C29.0136 187.171 28.7494 187.065 28.4149 187.065C28.0708 187.065 27.7969 187.176 27.5933 187.399C27.3897 187.617 27.2879 187.935 27.2879 188.352V190.547H26.6335V188.293C26.6335 187.896 26.5341 187.593 26.3354 187.384C26.1415 187.171 25.8773 187.065 25.5428 187.065C25.1986 187.065 24.9248 187.176 24.7212 187.399C24.5176 187.617 24.4158 187.935 24.4158 188.352V190.547H23.7541V186.563H24.4158V187.137C24.5467 186.929 24.7212 186.769 24.9393 186.657C25.1623 186.546 25.4071 186.49 25.6737 186.49C26.0082 186.49 26.3039 186.565 26.5608 186.716C26.8177 186.866 27.0092 187.086 27.1352 187.377C27.2467 187.096 27.4309 186.878 27.6878 186.723C27.9447 186.568 28.2307 186.49 28.5458 186.49ZM30.9982 188.541C30.9982 188.133 31.0806 187.777 31.2454 187.472C31.4102 187.162 31.6356 186.922 31.9216 186.752C32.2125 186.582 32.5348 186.497 32.8887 186.497C33.2377 186.497 33.5407 186.573 33.7976 186.723C34.0545 186.873 34.246 187.062 34.372 187.29V186.563H35.041V190.547H34.372V189.806C34.2412 190.038 34.0448 190.232 33.7831 190.387C33.5262 190.538 33.2256 190.613 32.8814 190.613C32.5276 190.613 32.2076 190.526 31.9216 190.351C31.6356 190.177 31.4102 189.932 31.2454 189.617C31.0806 189.302 30.9982 188.943 30.9982 188.541ZM34.372 188.548C34.372 188.247 34.3114 187.986 34.1903 187.763C34.0691 187.54 33.9043 187.37 33.6958 187.254C33.4922 187.132 33.2668 187.072 33.0196 187.072C32.7724 187.072 32.547 187.13 32.3434 187.246C32.1398 187.363 31.9774 187.532 31.8562 187.755C31.735 187.978 31.6744 188.24 31.6744 188.541C31.6744 188.846 31.735 189.113 31.8562 189.34C31.9774 189.563 32.1398 189.736 32.3434 189.857C32.547 189.973 32.7724 190.031 33.0196 190.031C33.2668 190.031 33.4922 189.973 33.6958 189.857C33.9043 189.736 34.0691 189.563 34.1903 189.34C34.3114 189.113 34.372 188.848 34.372 188.548ZM36.5009 185.916C36.3749 185.916 36.2682 185.872 36.181 185.785C36.0937 185.698 36.0501 185.591 36.0501 185.465C36.0501 185.339 36.0937 185.232 36.181 185.145C36.2682 185.058 36.3749 185.014 36.5009 185.014C36.6221 185.014 36.7239 185.058 36.8063 185.145C36.8936 185.232 36.9372 185.339 36.9372 185.465C36.9372 185.591 36.8936 185.698 36.8063 185.785C36.7239 185.872 36.6221 185.916 36.5009 185.916ZM36.8208 186.563V190.547H36.1592V186.563H36.8208ZM38.6102 185.167V190.547H37.9486V185.167H38.6102Z" fill="#383838"/>
<rect x="19.4663" y="237.081" width="162.045" height="22.8525" rx="6.23246" fill="url(#paint3_linear_452_674)"/>
<path d="M86.1644 248.652C86.1644 248.224 86.26 247.842 86.4511 247.505C86.6464 247.164 86.9102 246.901 87.2426 246.714C87.5792 246.522 87.9552 246.427 88.3707 246.427C88.8568 246.427 89.2827 246.551 89.6484 246.801C90.014 247.05 90.2695 247.395 90.415 247.835H89.4115C89.3118 247.628 89.1705 247.472 88.9877 247.368C88.8091 247.264 88.6013 247.212 88.3645 247.212C88.111 247.212 87.8846 247.272 87.6851 247.393C87.4899 247.509 87.3361 247.675 87.2239 247.891C87.1159 248.108 87.0619 248.361 87.0619 248.652C87.0619 248.939 87.1159 249.192 87.2239 249.412C87.3361 249.628 87.4899 249.797 87.6851 249.917C87.8846 250.033 88.111 250.092 88.3645 250.092C88.6013 250.092 88.8091 250.04 88.9877 249.936C89.1705 249.828 89.3118 249.67 89.4115 249.462H90.415C90.2695 249.907 90.014 250.254 89.6484 250.503C89.2869 250.748 88.861 250.871 88.3707 250.871C87.9552 250.871 87.5792 250.777 87.2426 250.59C86.9102 250.399 86.6464 250.135 86.4511 249.799C86.26 249.462 86.1644 249.08 86.1644 248.652ZM92.6934 250.889C92.361 250.889 92.0619 250.817 91.7959 250.671C91.53 250.522 91.3202 250.312 91.1665 250.042C91.0169 249.772 90.9421 249.46 90.9421 249.107C90.9421 248.754 91.019 248.442 91.1727 248.172C91.3306 247.902 91.5446 247.694 91.8146 247.549C92.0847 247.399 92.3859 247.324 92.7183 247.324C93.0507 247.324 93.352 247.399 93.622 247.549C93.8921 247.694 94.104 247.902 94.2578 248.172C94.4156 248.442 94.4946 248.754 94.4946 249.107C94.4946 249.46 94.4136 249.772 94.2515 250.042C94.0936 250.312 93.8776 250.522 93.6033 250.671C93.3333 250.817 93.03 250.889 92.6934 250.889ZM92.6934 250.129C92.8513 250.129 92.9988 250.092 93.1359 250.017C93.2772 249.938 93.3894 249.821 93.4725 249.668C93.5556 249.514 93.5971 249.327 93.5971 249.107C93.5971 248.779 93.5099 248.527 93.3354 248.353C93.165 248.174 92.9552 248.085 92.7059 248.085C92.4566 248.085 92.2468 248.174 92.0764 248.353C91.9102 248.527 91.8271 248.779 91.8271 249.107C91.8271 249.435 91.9081 249.688 92.0702 249.867C92.2364 250.042 92.4441 250.129 92.6934 250.129ZM97.048 247.331C97.4593 247.331 97.7917 247.461 98.0452 247.723C98.2986 247.981 98.4254 248.342 98.4254 248.808V250.833H97.5528V248.926C97.5528 248.652 97.4843 248.442 97.3472 248.297C97.21 248.147 97.0231 248.072 96.7862 248.072C96.5452 248.072 96.3541 248.147 96.2128 248.297C96.0757 248.442 96.0072 248.652 96.0072 248.926V250.833H95.1346V247.38H96.0072V247.81C96.1235 247.661 96.271 247.545 96.4497 247.461C96.6325 247.374 96.8319 247.331 97.048 247.331ZM100.271 248.097V249.767C100.271 249.884 100.298 249.969 100.352 250.023C100.41 250.073 100.506 250.098 100.639 250.098H101.044V250.833H100.495C99.7599 250.833 99.3922 250.476 99.3922 249.761V248.097H98.9809V247.38H99.3922V246.527H100.271V247.38H101.044V248.097H100.271ZM102.114 246.969C101.96 246.969 101.831 246.921 101.728 246.826C101.628 246.726 101.578 246.603 101.578 246.458C101.578 246.313 101.628 246.192 101.728 246.097C101.831 245.997 101.96 245.947 102.114 245.947C102.268 245.947 102.394 245.997 102.494 246.097C102.598 246.192 102.65 246.313 102.65 246.458C102.65 246.603 102.598 246.726 102.494 246.826C102.394 246.921 102.268 246.969 102.114 246.969ZM102.544 247.38V250.833H101.671V247.38H102.544ZM105.319 247.331C105.731 247.331 106.063 247.461 106.317 247.723C106.57 247.981 106.697 248.342 106.697 248.808V250.833H105.824V248.926C105.824 248.652 105.756 248.442 105.619 248.297C105.481 248.147 105.294 248.072 105.058 248.072C104.817 248.072 104.626 248.147 104.484 248.297C104.347 248.442 104.279 248.652 104.279 248.926V250.833H103.406V247.38H104.279V247.81C104.395 247.661 104.542 247.545 104.721 247.461C104.904 247.374 105.103 247.331 105.319 247.331ZM110.786 247.38V250.833H109.907V250.397C109.795 250.546 109.648 250.665 109.465 250.752C109.286 250.835 109.091 250.877 108.879 250.877C108.609 250.877 108.37 250.821 108.162 250.709C107.954 250.592 107.79 250.424 107.67 250.204C107.554 249.979 107.495 249.713 107.495 249.406V247.38H108.368V249.281C108.368 249.556 108.436 249.767 108.574 249.917C108.711 250.062 108.898 250.135 109.134 250.135C109.375 250.135 109.565 250.062 109.702 249.917C109.839 249.767 109.907 249.556 109.907 249.281V247.38H110.786ZM114.857 249.032C114.857 249.157 114.848 249.269 114.832 249.369H112.308C112.328 249.618 112.416 249.813 112.569 249.954C112.723 250.096 112.912 250.166 113.137 250.166C113.461 250.166 113.691 250.027 113.828 249.749H114.769C114.67 250.081 114.479 250.355 114.196 250.571C113.914 250.783 113.567 250.889 113.155 250.889C112.823 250.889 112.524 250.817 112.258 250.671C111.996 250.522 111.79 250.312 111.641 250.042C111.495 249.772 111.423 249.46 111.423 249.107C111.423 248.749 111.495 248.436 111.641 248.166C111.786 247.896 111.99 247.688 112.252 247.542C112.513 247.397 112.815 247.324 113.155 247.324C113.483 247.324 113.776 247.395 114.034 247.536C114.296 247.677 114.497 247.879 114.639 248.141C114.784 248.398 114.857 248.695 114.857 249.032ZM113.953 248.783C113.949 248.558 113.868 248.38 113.71 248.247C113.552 248.11 113.359 248.041 113.13 248.041C112.914 248.041 112.731 248.108 112.582 248.24C112.436 248.369 112.347 248.55 112.314 248.783H113.953Z" fill="#F5F5F5"/>
<rect x="19.726" y="297.069" width="161.525" height="22.3331" rx="5.97277" fill="white"/>
<rect x="19.726" y="297.069" width="161.525" height="22.3331" rx="5.97277" stroke="#D9D9D9" stroke-width="0.519371"/>
<path d="M70.2194 310.605C69.9161 310.605 69.6419 310.553 69.3967 310.449C69.1557 310.345 68.9646 310.195 68.8233 310C68.6821 309.805 68.6094 309.574 68.6052 309.308H69.5401C69.5525 309.487 69.6149 309.628 69.7271 309.732C69.8434 309.836 70.0013 309.888 70.2007 309.888C70.4043 309.888 70.5643 309.84 70.6806 309.744C70.797 309.645 70.8551 309.516 70.8551 309.358C70.8551 309.229 70.8157 309.123 70.7367 309.04C70.6578 308.957 70.558 308.893 70.4376 308.847C70.3212 308.797 70.1592 308.743 69.9514 308.685C69.6689 308.602 69.4383 308.521 69.2596 308.442C69.0851 308.359 68.9335 308.236 68.8046 308.074C68.68 307.908 68.6177 307.688 68.6177 307.413C68.6177 307.156 68.6821 306.932 68.8109 306.74C68.9397 306.549 69.1204 306.404 69.3531 306.304C69.5858 306.2 69.8517 306.148 70.1509 306.148C70.5996 306.148 70.9632 306.258 71.2415 306.479C71.5241 306.695 71.6799 306.998 71.709 307.389H70.7492C70.7409 307.239 70.6765 307.116 70.556 307.021C70.4396 306.921 70.2838 306.871 70.0885 306.871C69.9182 306.871 69.7811 306.915 69.6772 307.002C69.5775 307.089 69.5276 307.216 69.5276 307.382C69.5276 307.499 69.565 307.596 69.6398 307.675C69.7187 307.75 69.8143 307.812 69.9265 307.862C70.0428 307.908 70.2049 307.962 70.4126 308.024C70.6952 308.107 70.9258 308.19 71.1044 308.274C71.2831 308.357 71.4368 308.481 71.5656 308.648C71.6944 308.814 71.7588 309.032 71.7588 309.302C71.7588 309.535 71.6986 309.751 71.5781 309.95C71.4576 310.15 71.281 310.31 71.0483 310.43C70.8157 310.546 70.5393 310.605 70.2194 310.605ZM72.9578 306.697C72.8041 306.697 72.6753 306.649 72.5714 306.553C72.4717 306.454 72.4218 306.331 72.4218 306.186C72.4218 306.04 72.4717 305.92 72.5714 305.824C72.6753 305.724 72.8041 305.675 72.9578 305.675C73.1115 305.675 73.2383 305.724 73.338 305.824C73.4419 305.92 73.4938 306.04 73.4938 306.186C73.4938 306.331 73.4419 306.454 73.338 306.553C73.2383 306.649 73.1115 306.697 72.9578 306.697ZM73.3878 307.108V310.561H72.5153V307.108H73.3878ZM75.6024 307.052C75.86 307.052 76.0864 307.104 76.2817 307.208C76.477 307.308 76.6307 307.438 76.7429 307.6V307.108H77.6217V310.586C77.6217 310.906 77.5573 311.19 77.4285 311.44C77.2997 311.693 77.1065 311.893 76.8488 312.038C76.5912 312.188 76.2796 312.262 75.914 312.262C75.4237 312.262 75.0207 312.148 74.7049 311.92C74.3933 311.691 74.2167 311.379 74.1751 310.985H75.0414C75.0871 311.143 75.1848 311.267 75.3344 311.359C75.4881 311.454 75.673 311.502 75.8891 311.502C76.1425 311.502 76.3482 311.425 76.5061 311.271C76.664 311.122 76.7429 310.893 76.7429 310.586V310.05C76.6307 310.212 76.4749 310.347 76.2755 310.455C76.0802 310.563 75.8558 310.617 75.6024 310.617C75.3115 310.617 75.0456 310.542 74.8046 310.393C74.5636 310.243 74.3725 310.033 74.2312 309.763C74.0941 309.489 74.0255 309.175 74.0255 308.822C74.0255 308.473 74.0941 308.163 74.2312 307.893C74.3725 307.623 74.5615 307.416 74.7984 307.27C75.0394 307.125 75.3074 307.052 75.6024 307.052ZM76.7429 308.834C76.7429 308.623 76.7013 308.442 76.6182 308.292C76.5351 308.139 76.423 308.022 76.2817 307.943C76.1404 307.86 75.9888 307.819 75.8267 307.819C75.6647 307.819 75.5151 307.858 75.378 307.937C75.2409 308.016 75.1287 308.132 75.0414 308.286C74.9583 308.436 74.9168 308.614 74.9168 308.822C74.9168 309.03 74.9583 309.213 75.0414 309.37C75.1287 309.524 75.2409 309.643 75.378 309.726C75.5193 309.809 75.6688 309.85 75.8267 309.85C75.9888 309.85 76.1404 309.811 76.2817 309.732C76.423 309.649 76.5351 309.533 76.6182 309.383C76.7013 309.229 76.7429 309.046 76.7429 308.834ZM80.3872 307.058C80.7986 307.058 81.131 307.189 81.3844 307.451C81.6379 307.708 81.7646 308.07 81.7646 308.535V310.561H80.8921V308.654C80.8921 308.38 80.8235 308.17 80.6864 308.024C80.5493 307.875 80.3623 307.8 80.1255 307.8C79.8845 307.8 79.6933 307.875 79.5521 308.024C79.415 308.17 79.3464 308.38 79.3464 308.654V310.561H78.4739V307.108H79.3464V307.538C79.4627 307.389 79.6102 307.272 79.7889 307.189C79.9717 307.102 80.1712 307.058 80.3872 307.058ZM84.952 306.211V310.561H84.0794V306.211H84.952ZM87.7274 307.058C88.1388 307.058 88.4711 307.189 88.7246 307.451C88.9781 307.708 89.1048 308.07 89.1048 308.535V310.561H88.2322V308.654C88.2322 308.38 88.1637 308.17 88.0266 308.024C87.8895 307.875 87.7025 307.8 87.4656 307.8C87.2247 307.8 87.0335 307.875 86.8923 308.024C86.7551 308.17 86.6866 308.38 86.6866 308.654V310.561H85.814V307.108H86.6866V307.538C86.8029 307.389 86.9504 307.272 87.1291 307.189C87.3119 307.102 87.5113 307.058 87.7274 307.058ZM96.2061 307.108L95.1965 310.561H94.2554L93.6259 308.149L92.9964 310.561H92.0491L91.0332 307.108H91.9182L92.529 309.738L93.1896 307.108H94.112L94.7602 309.732L95.371 307.108H96.2061ZM97.1207 306.697C96.967 306.697 96.8382 306.649 96.7343 306.553C96.6346 306.454 96.5848 306.331 96.5848 306.186C96.5848 306.04 96.6346 305.92 96.7343 305.824C96.8382 305.724 96.967 305.675 97.1207 305.675C97.2745 305.675 97.4012 305.724 97.5009 305.824C97.6048 305.92 97.6567 306.04 97.6567 306.186C97.6567 306.331 97.6048 306.454 97.5009 306.553C97.4012 306.649 97.2745 306.697 97.1207 306.697ZM97.5508 307.108V310.561H96.6782V307.108H97.5508ZM99.4287 307.825V309.495C99.4287 309.611 99.4558 309.697 99.5098 309.751C99.5679 309.801 99.6635 309.825 99.7965 309.825H100.202V310.561H99.6531C98.9177 310.561 98.55 310.204 98.55 309.489V307.825H98.1386V307.108H98.55V306.254H99.4287V307.108H100.202V307.825H99.4287ZM102.774 307.058C103.035 307.058 103.268 307.116 103.472 307.233C103.675 307.345 103.833 307.513 103.945 307.738C104.062 307.958 104.12 308.224 104.12 308.535V310.561H103.247V308.654C103.247 308.38 103.179 308.17 103.042 308.024C102.905 307.875 102.718 307.8 102.481 307.8C102.24 307.8 102.049 307.875 101.907 308.024C101.77 308.17 101.702 308.38 101.702 308.654V310.561H100.829V305.949H101.702V307.538C101.814 307.389 101.963 307.272 102.15 307.189C102.337 307.102 102.545 307.058 102.774 307.058ZM109.607 307.557C109.607 307.79 109.551 308.008 109.439 308.211C109.331 308.415 109.158 308.579 108.921 308.704C108.689 308.828 108.394 308.891 108.036 308.891H107.307V310.561H106.435V306.211H108.036C108.373 306.211 108.66 306.269 108.897 306.385C109.133 306.501 109.31 306.661 109.426 306.865C109.547 307.069 109.607 307.299 109.607 307.557ZM107.999 308.186C108.24 308.186 108.419 308.132 108.535 308.024C108.651 307.912 108.71 307.756 108.71 307.557C108.71 307.133 108.473 306.921 107.999 306.921H107.307V308.186H107.999ZM110.002 308.822C110.002 308.473 110.071 308.163 110.208 307.893C110.349 307.623 110.538 307.416 110.775 307.27C111.016 307.125 111.284 307.052 111.579 307.052C111.837 307.052 112.061 307.104 112.252 307.208C112.447 307.312 112.603 307.443 112.72 307.6V307.108H113.598V310.561H112.72V310.056C112.607 310.218 112.452 310.353 112.252 310.461C112.057 310.565 111.83 310.617 111.573 310.617C111.282 310.617 111.016 310.542 110.775 310.393C110.538 310.243 110.349 310.033 110.208 309.763C110.071 309.489 110.002 309.175 110.002 308.822ZM112.72 308.834C112.72 308.623 112.678 308.442 112.595 308.292C112.512 308.139 112.4 308.022 112.258 307.943C112.117 307.86 111.965 307.819 111.803 307.819C111.641 307.819 111.492 307.858 111.355 307.937C111.217 308.016 111.105 308.132 111.018 308.286C110.935 308.436 110.893 308.614 110.893 308.822C110.893 309.03 110.935 309.213 111.018 309.37C111.105 309.524 111.217 309.643 111.355 309.726C111.496 309.809 111.645 309.85 111.803 309.85C111.965 309.85 112.117 309.811 112.258 309.732C112.4 309.649 112.512 309.533 112.595 309.383C112.678 309.229 112.72 309.046 112.72 308.834ZM115.772 310.617C115.489 310.617 115.236 310.567 115.011 310.467C114.787 310.364 114.608 310.224 114.475 310.05C114.347 309.875 114.276 309.682 114.264 309.47H115.142C115.159 309.603 115.223 309.713 115.335 309.801C115.452 309.888 115.595 309.931 115.766 309.931C115.932 309.931 116.061 309.898 116.152 309.832C116.247 309.765 116.295 309.68 116.295 309.576C116.295 309.464 116.237 309.381 116.121 309.327C116.009 309.269 115.828 309.206 115.579 309.14C115.321 309.078 115.109 309.013 114.943 308.947C114.781 308.88 114.64 308.778 114.519 308.641C114.403 308.504 114.345 308.319 114.345 308.087C114.345 307.895 114.399 307.721 114.507 307.563C114.619 307.405 114.777 307.281 114.98 307.189C115.188 307.098 115.431 307.052 115.709 307.052C116.121 307.052 116.449 307.156 116.694 307.364C116.939 307.567 117.074 307.844 117.099 308.193H116.264C116.252 308.055 116.193 307.947 116.09 307.868C115.99 307.785 115.855 307.744 115.685 307.744C115.527 307.744 115.404 307.773 115.317 307.831C115.234 307.889 115.192 307.97 115.192 308.074C115.192 308.19 115.25 308.28 115.367 308.342C115.483 308.4 115.664 308.461 115.909 308.523C116.158 308.585 116.364 308.65 116.526 308.716C116.688 308.783 116.827 308.886 116.943 309.028C117.064 309.165 117.126 309.348 117.13 309.576C117.13 309.776 117.074 309.954 116.962 310.112C116.854 310.27 116.696 310.395 116.488 310.486C116.285 310.573 116.046 310.617 115.772 310.617ZM119.168 310.617C118.885 310.617 118.632 310.567 118.408 310.467C118.183 310.364 118.005 310.224 117.872 310.05C117.743 309.875 117.672 309.682 117.66 309.47H118.538C118.555 309.603 118.62 309.713 118.732 309.801C118.848 309.888 118.991 309.931 119.162 309.931C119.328 309.931 119.457 309.898 119.548 309.832C119.644 309.765 119.691 309.68 119.691 309.576C119.691 309.464 119.633 309.381 119.517 309.327C119.405 309.269 119.224 309.206 118.975 309.14C118.717 309.078 118.505 309.013 118.339 308.947C118.177 308.88 118.036 308.778 117.915 308.641C117.799 308.504 117.741 308.319 117.741 308.087C117.741 307.895 117.795 307.721 117.903 307.563C118.015 307.405 118.173 307.281 118.376 307.189C118.584 307.098 118.827 307.052 119.106 307.052C119.517 307.052 119.845 307.156 120.09 307.364C120.336 307.567 120.471 307.844 120.495 308.193H119.66C119.648 308.055 119.59 307.947 119.486 307.868C119.386 307.785 119.251 307.744 119.081 307.744C118.923 307.744 118.8 307.773 118.713 307.831C118.63 307.889 118.588 307.97 118.588 308.074C118.588 308.19 118.647 308.28 118.763 308.342C118.879 308.4 119.06 308.461 119.305 308.523C119.554 308.585 119.76 308.65 119.922 308.716C120.084 308.783 120.223 308.886 120.34 309.028C120.46 309.165 120.522 309.348 120.527 309.576C120.527 309.776 120.471 309.954 120.358 310.112C120.25 310.27 120.092 310.395 119.885 310.486C119.681 310.573 119.442 310.617 119.168 310.617ZM123.287 310.561L122.115 309.09V310.561H121.243V305.949H122.115V308.573L123.275 307.108H124.409L122.888 308.841L124.421 310.561H123.287ZM128.092 308.76C128.092 308.884 128.084 308.997 128.067 309.096H125.543C125.564 309.346 125.651 309.541 125.805 309.682C125.959 309.823 126.148 309.894 126.372 309.894C126.696 309.894 126.927 309.755 127.064 309.476H128.005C127.905 309.809 127.714 310.083 127.432 310.299C127.149 310.511 126.802 310.617 126.391 310.617C126.058 310.617 125.759 310.544 125.493 310.399C125.232 310.249 125.026 310.039 124.876 309.769C124.731 309.499 124.658 309.188 124.658 308.834C124.658 308.477 124.731 308.163 124.876 307.893C125.022 307.623 125.225 307.416 125.487 307.27C125.749 307.125 126.05 307.052 126.391 307.052C126.719 307.052 127.012 307.123 127.27 307.264C127.531 307.405 127.733 307.607 127.874 307.868C128.02 308.126 128.092 308.423 128.092 308.76ZM127.189 308.51C127.184 308.286 127.103 308.107 126.945 307.974C126.788 307.837 126.594 307.769 126.366 307.769C126.15 307.769 125.967 307.835 125.817 307.968C125.672 308.097 125.583 308.278 125.549 308.51H127.189ZM132.032 307.108L129.895 312.194H128.966L129.714 310.474L128.33 307.108H129.309L130.2 309.52L131.104 307.108H132.032Z" fill="#383838"/>
<rect x="19.4622" y="280.189" width="75.8286" height="0.519374" fill="#D9D9D9"/>
<rect x="105.678" y="280.189" width="75.8286" height="0.519374" fill="#D9D9D9"/>
<path d="M99.4093 282.59C99.0734 282.59 98.767 282.512 98.49 282.356C98.213 282.197 97.9931 281.977 97.8304 281.697C97.6711 281.413 97.5915 281.094 97.5915 280.741C97.5915 280.388 97.6711 280.071 97.8304 279.791C97.9931 279.507 98.213 279.287 98.49 279.131C98.767 278.972 99.0734 278.892 99.4093 278.892C99.7486 278.892 100.057 278.972 100.334 279.131C100.611 279.287 100.829 279.505 100.988 279.786C101.147 280.066 101.227 280.385 101.227 280.741C101.227 281.098 101.147 281.416 100.988 281.697C100.829 281.977 100.611 282.197 100.334 282.356C100.057 282.512 99.7486 282.59 99.4093 282.59ZM99.4093 282.18C99.6621 282.18 99.8888 282.121 100.09 282.003C100.294 281.886 100.453 281.718 100.567 281.499C100.685 281.281 100.744 281.029 100.744 280.741C100.744 280.45 100.685 280.198 100.567 279.983C100.453 279.765 100.296 279.597 100.095 279.479C99.894 279.361 99.6655 279.303 99.4093 279.303C99.1531 279.303 98.9245 279.361 98.7237 279.479C98.5229 279.597 98.3636 279.765 98.2459 279.983C98.1316 280.198 98.0745 280.45 98.0745 280.741C98.0745 281.029 98.1316 281.281 98.2459 281.499C98.3636 281.718 98.5229 281.886 98.7237 282.003C98.928 282.121 99.1565 282.18 99.4093 282.18ZM102.324 280.17C102.407 280.007 102.524 279.881 102.677 279.791C102.833 279.701 103.021 279.656 103.243 279.656V280.144H103.118C102.589 280.144 102.324 280.431 102.324 281.006V282.554H101.851V279.708H102.324V280.17Z" fill="#D9D9D9"/>
<path d="M22.0424 116.816C21.638 116.816 21.2723 116.747 20.9455 116.608C20.6242 116.47 20.3693 116.27 20.181 116.01C19.9926 115.75 19.8957 115.442 19.8901 115.088H21.1366C21.1532 115.326 21.2363 115.514 21.3859 115.653C21.541 115.791 21.7515 115.861 22.0175 115.861C22.2889 115.861 22.5022 115.797 22.6573 115.669C22.8124 115.536 22.89 115.365 22.89 115.154C22.89 114.982 22.8374 114.841 22.7321 114.73C22.6269 114.62 22.4939 114.534 22.3332 114.473C22.1781 114.406 21.9621 114.334 21.6851 114.257C21.3083 114.146 21.0009 114.038 20.7627 113.933C20.53 113.822 20.3278 113.658 20.156 113.442C19.9898 113.221 19.9067 112.927 19.9067 112.561C19.9067 112.218 19.9926 111.919 20.1643 111.664C20.3361 111.409 20.5771 111.215 20.8873 111.082C21.1975 110.944 21.5521 110.875 21.951 110.875C22.5493 110.875 23.034 111.021 23.4052 111.315C23.7819 111.603 23.9897 112.007 24.0285 112.528H22.7487C22.7377 112.329 22.6518 112.165 22.4911 112.038C22.336 111.905 22.1283 111.839 21.8679 111.839C21.6407 111.839 21.4579 111.897 21.3194 112.013C21.1865 112.129 21.12 112.298 21.12 112.52C21.12 112.675 21.1698 112.805 21.2696 112.91C21.3748 113.01 21.5022 113.093 21.6518 113.16C21.8069 113.221 22.023 113.293 22.3 113.376C22.6767 113.487 22.9842 113.597 23.2224 113.708C23.4606 113.819 23.6656 113.985 23.8373 114.207C24.0091 114.428 24.0949 114.719 24.0949 115.079C24.0949 115.39 24.0146 115.678 23.854 115.944C23.6933 116.21 23.4578 116.423 23.1476 116.583C22.8374 116.739 22.469 116.816 22.0424 116.816ZM25.6936 111.606C25.4886 111.606 25.3169 111.542 25.1784 111.415C25.0454 111.282 24.9789 111.118 24.9789 110.924C24.9789 110.731 25.0454 110.57 25.1784 110.442C25.3169 110.309 25.4886 110.243 25.6936 110.243C25.8985 110.243 26.0675 110.309 26.2005 110.442C26.339 110.57 26.4082 110.731 26.4082 110.924C26.4082 111.118 26.339 111.282 26.2005 111.415C26.0675 111.542 25.8985 111.606 25.6936 111.606ZM26.267 112.154V116.758H25.1036V112.154H26.267ZM29.2196 112.079C29.5631 112.079 29.8651 112.149 30.1254 112.287C30.3858 112.42 30.5908 112.595 30.7404 112.811V112.154H31.9121V116.791C31.9121 117.218 31.8262 117.597 31.6545 117.93C31.4827 118.268 31.2251 118.534 30.8816 118.727C30.5382 118.927 30.1227 119.027 29.6351 119.027C28.9814 119.027 28.4441 118.874 28.023 118.57C27.6075 118.265 27.3721 117.849 27.3167 117.323H28.4718C28.5327 117.534 28.6629 117.7 28.8623 117.822C29.0673 117.949 29.3138 118.013 29.6019 118.013C29.9398 118.013 30.2141 117.91 30.4246 117.705C30.6351 117.506 30.7404 117.201 30.7404 116.791V116.077C30.5908 116.293 30.383 116.473 30.1171 116.617C29.8567 116.761 29.5576 116.833 29.2196 116.833C28.8318 116.833 28.4773 116.733 28.156 116.534C27.8347 116.334 27.5798 116.054 27.3915 115.694C27.2086 115.329 27.1172 114.91 27.1172 114.44C27.1172 113.974 27.2086 113.561 27.3915 113.201C27.5798 112.841 27.8319 112.564 28.1477 112.37C28.469 112.176 28.8263 112.079 29.2196 112.079ZM30.7404 114.456C30.7404 114.174 30.685 113.933 30.5742 113.733C30.4634 113.528 30.3138 113.373 30.1254 113.268C29.9371 113.157 29.7349 113.102 29.5188 113.102C29.3027 113.102 29.1033 113.154 28.9205 113.26C28.7377 113.365 28.5881 113.52 28.4718 113.725C28.361 113.924 28.3056 114.163 28.3056 114.44C28.3056 114.717 28.361 114.96 28.4718 115.171C28.5881 115.376 28.7377 115.534 28.9205 115.644C29.1088 115.755 29.3083 115.811 29.5188 115.811C29.7349 115.811 29.9371 115.758 30.1254 115.653C30.3138 115.542 30.4634 115.387 30.5742 115.187C30.685 114.982 30.7404 114.739 30.7404 114.456ZM35.5995 112.088C36.1479 112.088 36.5911 112.262 36.9291 112.611C37.267 112.955 37.436 113.437 37.436 114.057V116.758H36.2726V114.215C36.2726 113.85 36.1812 113.57 35.9983 113.376C35.8155 113.176 35.5662 113.077 35.2505 113.077C34.9291 113.077 34.6743 113.176 34.4859 113.376C34.3031 113.57 34.2117 113.85 34.2117 114.215V116.758H33.0483V112.154H34.2117V112.728C34.3668 112.528 34.5635 112.373 34.8017 112.262C35.0455 112.146 35.3114 112.088 35.5995 112.088Z" fill="black"/>
<path d="M41.6858 110.958V116.758H40.5224V110.958H41.6858ZM45.3864 112.088C45.9348 112.088 46.378 112.262 46.716 112.611C47.0539 112.955 47.2229 113.437 47.2229 114.057V116.758H46.0595V114.215C46.0595 113.85 45.9681 113.57 45.7853 113.376C45.6024 113.176 45.3531 113.077 45.0374 113.077C44.716 113.077 44.4612 113.176 44.2728 113.376C44.09 113.57 43.9986 113.85 43.9986 114.215V116.758H42.8352V112.154H43.9986V112.728C44.1537 112.528 44.3504 112.373 44.5886 112.262C44.8324 112.146 45.0983 112.088 45.3864 112.088Z" fill="#F83E67"/>
</g>
<rect x="3.71976" y="3.71976" width="193.534" height="422.057" rx="26.9104" stroke="#383838" stroke-width="6.56048"/>
<defs>
<linearGradient id="paint0_linear_452_674" x1="17.2177" y1="18.397" x2="164.136" y2="-28.8382" gradientUnits="userSpaceOnUse">
<stop stop-color="#F83E67"/>
<stop offset="1" stop-color="#A50976"/>
</linearGradient>
<linearGradient id="paint1_linear_452_674" x1="3.1503" y1="42.9314" x2="103.137" y2="10.7852" gradientUnits="userSpaceOnUse">
<stop stop-color="#F83E67"/>
<stop offset="1" stop-color="#A50976"/>
</linearGradient>
<linearGradient id="paint2_linear_452_674" x1="67.7678" y1="134.282" x2="127.496" y2="134.111" gradientUnits="userSpaceOnUse">
<stop stop-color="#F83E67"/>
<stop offset="1" stop-color="#A50976"/>
</linearGradient>
<linearGradient id="paint3_linear_452_674" x1="19.4663" y1="248.508" x2="181.511" y2="248.508" gradientUnits="userSpaceOnUse">
<stop stop-color="#F83E67"/>
<stop offset="1" stop-color="#A50976"/>
</linearGradient>
<clipPath id="clip0_452_674">
<rect x="7" y="7" width="186.974" height="415.497" rx="23.6302" fill="white"/>
</clipPath>
</defs>
</svg>
