<svg width="177" height="157" viewBox="0 0 177 157" fill="none" xmlns="http://www.w3.org/2000/svg">
<path d="M53.0166 50.2883H72.4779" stroke="url(#paint0_linear_90_2535)" stroke-width="7.29797" stroke-linecap="round" stroke-linejoin="round"/>
<path d="M130.861 62.4515C130.861 62.0769 130.861 59.8583 130.852 59.7026C130.676 57.2651 128.589 55.3238 125.962 55.1633C125.797 55.1536 125.597 55.1536 125.188 55.1536H112.529C103.839 55.1536 96.8042 61.6877 96.8042 69.7495C96.8042 77.8113 103.844 84.3454 112.519 84.3454H125.184C125.592 84.3454 125.792 84.3454 125.962 84.3357C128.589 84.1752 130.681 82.2339 130.852 79.7964C130.861 79.6407 130.861 77.4221 130.861 77.0475" stroke="url(#paint1_linear_90_2535)" stroke-width="7.29797" stroke-linecap="round"/>
<path d="M111.4 74.6148C114.088 74.6148 116.266 72.4366 116.266 69.7495C116.266 67.0625 114.088 64.8842 111.4 64.8842C108.713 64.8842 106.535 67.0625 106.535 69.7495C106.535 72.4366 108.713 74.6148 111.4 74.6148Z" fill="url(#paint2_linear_90_2535)"/>
<path d="M87.0736 30.827C105.421 30.827 114.597 30.827 120.294 36.5292C124.23 40.4603 125.451 46.0457 125.826 55.1536M72.4777 108.672H87.0736C105.421 108.672 114.597 108.672 120.294 102.97C124.23 99.0387 125.451 93.4533 125.826 84.3455M67.6124 30.827C52.4618 30.8757 44.4291 31.3525 39.2573 36.5292C33.5552 42.2265 33.5552 51.4024 33.5552 69.7495C33.5552 88.0966 33.5552 97.2726 39.2573 102.97C42.4344 106.152 46.6915 107.558 53.0164 108.176" stroke="url(#paint3_linear_90_2535)" stroke-width="7.29797" stroke-linecap="round"/>
<g clip-path="url(#clip0_90_2535)">
<path d="M119.206 5.71777L121.571 6.37565" stroke="#383838" stroke-width="0.920724" stroke-linecap="round" stroke-linejoin="round"/>
<path d="M128.256 9.82771C128.269 9.78218 128.344 9.51251 128.348 9.49326C128.409 9.19106 128.221 8.88455 127.907 8.77622C127.887 8.76944 127.863 8.7627 127.813 8.74888L126.275 8.32093C125.218 8.02719 124.142 8.58358 123.87 9.56348C123.597 10.5434 124.232 11.5756 125.287 11.8688L126.826 12.2969C126.876 12.3108 126.9 12.3175 126.921 12.3221C127.246 12.3914 127.566 12.2261 127.669 11.9356C127.675 11.917 127.75 11.6474 127.763 11.6018" stroke="#383838" stroke-width="0.920724" stroke-linecap="round"/>
<path d="M125.48 10.6482C125.806 10.7391 126.145 10.5479 126.236 10.2213C126.326 9.89473 126.135 9.55633 125.809 9.4655C125.482 9.37466 125.144 9.56579 125.053 9.8924C124.962 10.219 125.153 10.5574 125.48 10.6482Z" fill="#383838"/>
<path d="M124.003 4.50357C126.233 5.12378 127.349 5.43397 127.848 6.31965C128.194 6.93054 128.153 7.65071 127.891 8.77042M119.597 13.4721L121.372 13.9655C123.602 14.5857 124.717 14.8959 125.602 14.3954C126.214 14.0506 126.551 13.413 126.904 12.3186M121.638 3.84569C119.794 3.33944 118.802 3.12586 117.998 3.58024C117.113 4.07998 116.803 5.1953 116.182 7.42536C115.562 9.65542 115.252 10.7707 115.752 11.656C116.031 12.1502 116.501 12.465 117.249 12.7539" stroke="#383838" stroke-width="0.920724" stroke-linecap="round"/>
</g>
<g clip-path="url(#clip1_90_2535)">
<path d="M6.6543 107.24L8.89306 106.232" stroke="#383838" stroke-width="0.920724" stroke-linecap="round" stroke-linejoin="round"/>
<path d="M16.2392 104.607C16.2198 104.564 16.1049 104.309 16.0957 104.291C15.9493 104.02 15.6086 103.905 15.2981 104.023C15.2786 104.03 15.2556 104.04 15.2086 104.062L13.7523 104.717C12.7527 105.167 12.2818 106.283 12.6994 107.211C13.117 108.138 14.2654 108.525 15.2633 108.076L16.7202 107.42C16.7672 107.399 16.7901 107.388 16.8092 107.378C17.1031 107.224 17.2432 106.892 17.1366 106.603C17.1296 106.585 17.0147 106.329 16.9953 106.286" stroke="#383838" stroke-width="0.920724" stroke-linecap="round"/>
<path d="M14.6306 107.015C14.9397 106.875 15.0775 106.512 14.9383 106.203C14.7991 105.894 14.4357 105.756 14.1266 105.895C13.8175 106.034 13.6797 106.398 13.8189 106.707C13.9581 107.016 14.3215 107.154 14.6306 107.015Z" fill="#383838"/>
<path d="M9.56383 103.237C11.6744 102.287 12.73 101.812 13.6808 102.173C14.3372 102.421 14.767 103 15.2819 104.028M11.9171 112.949L13.5962 112.192C15.7068 111.242 16.7624 110.767 17.1224 109.816C17.3715 109.16 17.2227 108.454 16.794 107.387M7.32507 104.245C5.58471 105.036 4.68536 105.507 4.35856 106.37C3.99772 107.321 4.47303 108.377 5.42341 110.487C6.37378 112.598 6.8491 113.653 7.80017 114.013C8.33047 114.215 8.89304 114.156 9.65264 113.9" stroke="#383838" stroke-width="0.920724" stroke-linecap="round"/>
</g>
<g clip-path="url(#clip2_90_2535)">
<path d="M6.44189 23.3599L9.33971 22.3123" stroke="#383838" stroke-width="1.15551" stroke-linecap="round" stroke-linejoin="round"/>
<path d="M18.6881 20.9807C18.668 20.9249 18.5486 20.5945 18.5387 20.5719C18.3814 20.2184 17.9661 20.0417 17.5663 20.1592C17.5411 20.1666 17.5114 20.1774 17.4506 20.1994L15.5656 20.8808C14.2717 21.3486 13.5759 22.7002 14.0098 23.9007C14.4438 25.1011 15.8438 25.695 17.1355 25.2281L19.0213 24.5464C19.0821 24.5244 19.1118 24.5136 19.1367 24.503C19.5192 24.3377 19.7262 23.936 19.6204 23.5639C19.6134 23.5402 19.494 23.2098 19.4739 23.154" stroke="#383838" stroke-width="1.15551" stroke-linecap="round"/>
<path d="M16.445 23.8394C16.8451 23.6947 17.0522 23.2531 16.9076 22.853C16.7629 22.4529 16.3213 22.2458 15.9212 22.3904C15.5211 22.5351 15.314 22.9767 15.4587 23.3768C15.6033 23.7769 16.0449 23.984 16.445 23.8394Z" fill="#383838"/>
<path d="M10.4656 18.6288C13.1975 17.6412 14.5638 17.1472 15.7191 17.6896C16.5168 18.0631 16.9993 18.829 17.5454 20.165M12.4826 31.0058L14.656 30.2201C17.3879 29.2324 18.7542 28.7385 19.2956 27.5827C19.6701 26.7855 19.5513 25.8881 19.1168 24.5118M7.56776 19.6764C5.31443 20.4992 4.14402 21.0026 3.65259 22.0518C3.11022 23.2071 3.60416 24.5734 4.59179 27.3053C5.57941 30.0373 6.07336 31.4036 7.2291 31.945C7.87346 32.2477 8.58304 32.2279 9.55809 31.9795" stroke="#383838" stroke-width="1.15551" stroke-linecap="round"/>
</g>
<g clip-path="url(#clip3_90_2535)">
<path d="M161.075 58.5099L164.044 59.3355" stroke="#383838" stroke-width="1.15551" stroke-linecap="round" stroke-linejoin="round"/>
<path d="M172.434 63.6679C172.45 63.6108 172.544 63.2724 172.549 63.2482C172.626 62.8689 172.39 62.4843 171.996 62.3483C171.971 62.3398 171.941 62.3313 171.878 62.314L169.947 61.7769C168.622 61.4083 167.271 62.1065 166.929 63.3363C166.587 64.5661 167.384 65.8615 168.707 66.2295L170.639 66.7668C170.701 66.7842 170.732 66.7926 170.758 66.7984C171.166 66.8853 171.567 66.678 171.697 66.3134C171.705 66.29 171.799 65.9516 171.815 65.8945" stroke="#383838" stroke-width="1.15551" stroke-linecap="round"/>
<path d="M168.949 64.6977C169.359 64.8117 169.784 64.5718 169.898 64.162C170.012 63.7521 169.772 63.3274 169.362 63.2134C168.952 63.0994 168.528 63.3392 168.414 63.7491C168.3 64.159 168.54 64.5837 168.949 64.6977Z" fill="#383838"/>
<path d="M167.096 56.9861C169.895 57.7645 171.294 58.1538 171.922 59.2653C172.355 60.0319 172.305 60.9358 171.975 62.341M161.567 68.2416L163.793 68.8609C166.592 69.6392 167.992 70.0285 169.103 69.4004C169.87 68.9677 170.293 68.1675 170.737 66.794M164.127 56.1604C161.814 55.5251 160.569 55.2571 159.56 55.8273C158.449 56.4545 158.059 57.8542 157.281 60.653C156.502 63.4517 156.113 64.8514 156.741 65.9624C157.091 66.5826 157.681 66.9777 158.619 67.3403" stroke="#383838" stroke-width="1.15551" stroke-linecap="round"/>
</g>
<g clip-path="url(#clip4_90_2535)">
<path d="M117.746 143.837L120.643 142.79" stroke="#383838" stroke-width="1.15551" stroke-linecap="round" stroke-linejoin="round"/>
<path d="M129.992 141.458C129.972 141.402 129.852 141.072 129.842 141.049C129.685 140.696 129.27 140.519 128.87 140.637C128.845 140.644 128.815 140.655 128.754 140.677L126.869 141.358C125.575 141.826 124.88 143.178 125.314 144.378C125.748 145.578 127.148 146.172 128.439 145.705L130.325 145.024C130.386 145.002 130.416 144.991 130.44 144.98C130.823 144.815 131.03 144.413 130.924 144.041C130.917 144.018 130.798 143.687 130.778 143.631" stroke="#383838" stroke-width="1.15551" stroke-linecap="round"/>
<path d="M127.749 144.317C128.149 144.172 128.356 143.731 128.211 143.33C128.067 142.93 127.625 142.723 127.225 142.868C126.825 143.013 126.618 143.454 126.762 143.854C126.907 144.254 127.349 144.461 127.749 144.317Z" fill="#383838"/>
<path d="M121.769 139.106C124.501 138.119 125.868 137.625 127.023 138.167C127.821 138.54 128.303 139.306 128.849 140.642M123.786 151.483L125.96 150.697C128.692 149.71 130.058 149.216 130.599 148.06C130.974 147.263 130.855 146.366 130.42 144.989M118.871 140.154C116.618 140.977 115.448 141.48 114.956 142.529C114.414 143.685 114.908 145.051 115.895 147.783C116.883 150.515 117.377 151.881 118.533 152.422C119.177 152.725 119.887 152.705 120.862 152.457" stroke="#383838" stroke-width="1.15551" stroke-linecap="round"/>
</g>
<defs>
<linearGradient id="paint0_linear_90_2535" x1="62.7472" y1="50.2883" x2="62.7472" y2="51.2883" gradientUnits="userSpaceOnUse">
<stop stop-color="#F83E67"/>
<stop offset="1" stop-color="#A50976"/>
</linearGradient>
<linearGradient id="paint1_linear_90_2535" x1="113.833" y1="55.1536" x2="113.833" y2="84.3454" gradientUnits="userSpaceOnUse">
<stop stop-color="#F83E67"/>
<stop offset="1" stop-color="#A50976"/>
</linearGradient>
<linearGradient id="paint2_linear_90_2535" x1="111.4" y1="64.8842" x2="111.4" y2="74.6148" gradientUnits="userSpaceOnUse">
<stop stop-color="#F83E67"/>
<stop offset="1" stop-color="#A50976"/>
</linearGradient>
<linearGradient id="paint3_linear_90_2535" x1="79.6905" y1="30.827" x2="79.6905" y2="108.672" gradientUnits="userSpaceOnUse">
<stop stop-color="#F83E67"/>
<stop offset="1" stop-color="#A50976"/>
</linearGradient>
<clipPath id="clip0_90_2535">
<rect width="14.7316" height="14.7316" fill="white" transform="translate(116.973) rotate(15.5421)"/>
</clipPath>
<clipPath id="clip1_90_2535">
<rect width="14.7316" height="14.7316" fill="white" transform="translate(1.27979 104.275) rotate(-24.2415)"/>
</clipPath>
<clipPath id="clip2_90_2535">
<rect width="18.4882" height="18.4882" fill="white" transform="translate(0 19.1357) rotate(-19.8757)"/>
</clipPath>
<clipPath id="clip3_90_2535">
<rect width="18.4882" height="18.4882" fill="white" transform="translate(158.273 51.334) rotate(15.5421)"/>
</clipPath>
<clipPath id="clip4_90_2535">
<rect width="18.4882" height="18.4882" fill="white" transform="translate(111.304 139.613) rotate(-19.8757)"/>
</clipPath>
</defs>
</svg>
