<svg width="17" height="14" viewBox="0 0 17 14" fill="none" xmlns="http://www.w3.org/2000/svg">
<path d="M6.915 1.82761C8.09834 0.240942 9.8775 -0.222391 11.5142 0.223442C13.2808 0.704275 14.8342 2.22178 15.35 4.33511C15.3767 4.44344 15.3997 4.55178 15.4192 4.66011C14.6745 4.39477 13.8646 4.37433 13.1075 4.60178C12.035 3.80844 10.7067 3.67511 9.52584 4.11011C8.04667 4.65594 6.89167 6.04011 6.62417 7.78177C6.2825 10.0118 7.64084 12.0151 9.56167 13.7184L9.885 13.9984C9.62417 14.0168 9.35917 13.9759 9.10584 13.9218C8.97566 13.8938 8.84618 13.8627 8.7175 13.8284L8.27 13.7034C4.29167 12.5843 1.62834 10.8334 0.86417 8.21677C0.25417 6.12844 0.840836 4.03761 2.13084 2.73761C3.32584 1.53344 5.0975 1.04511 6.915 1.82761ZM8.27167 8.03428C8.62834 5.70761 11.3192 4.56094 12.7008 6.55761C12.7141 6.57617 12.7341 6.58876 12.7566 6.59266C12.779 6.59656 12.8021 6.59145 12.8208 6.57844C14.8017 5.17511 16.9375 7.17261 16.4767 9.48094C16.21 10.8198 14.9683 11.9309 12.7517 12.8143L12.3892 12.9559L12.17 13.0459C11.9808 13.1201 11.7808 13.1793 11.6 13.1476C11.42 13.1159 11.2525 12.9909 11.1 12.8576L10.8417 12.6243C8.91389 10.9654 8.05723 9.43539 8.27167 8.03428Z" fill="white" fill-opacity="0.4"/>
</svg>
